<svg width="30" height="30" viewBox="0 0 30 30" fill="none" xmlns="http://www.w3.org/2000/svg">
<g id="exclamation-triangle_svgrepo.com" clip-path="url(#clip0_574_5581)">
<path id="Vector" d="M25.2756 21.2832L17.1589 6.3332C16.944 5.93838 16.6266 5.60879 16.2402 5.37916C15.8538 5.14952 15.4126 5.02832 14.9631 5.02832C14.5135 5.02832 14.0724 5.14952 13.6859 5.37916C13.2995 5.60879 12.9821 5.93838 12.7672 6.3332L4.64223 21.2832C4.42957 21.6649 4.32067 22.0957 4.32639 22.5326C4.3321 22.9695 4.45224 23.3973 4.67482 23.7734C4.89739 24.1494 5.21464 24.4605 5.59493 24.6757C5.97523 24.8909 6.40528 25.0027 6.84223 24.9999H23.0756C23.5089 25.0003 23.935 24.888 24.3119 24.6741C24.6888 24.4602 25.0036 24.152 25.2254 23.7797C25.4473 23.4074 25.5686 22.9839 25.5773 22.5506C25.5861 22.1173 25.4821 21.6892 25.2756 21.3082V21.2832ZM13.7172 10.6165C13.7172 10.285 13.8489 9.96707 14.0833 9.73265C14.3178 9.49823 14.6357 9.36653 14.9672 9.36653C15.2988 9.36653 15.6167 9.49823 15.8511 9.73265C16.0855 9.96707 16.2172 10.285 16.2172 10.6165V16.3582C16.2172 16.6897 16.0855 17.0077 15.8511 17.2421C15.6167 17.4765 15.2988 17.6082 14.9672 17.6082C14.6357 17.6082 14.3178 17.4765 14.0833 17.2421C13.8489 17.0077 13.7172 16.6897 13.7172 16.3582V10.6165ZM15.0006 21.8749C14.7171 21.8749 14.44 21.7908 14.2042 21.6333C13.9685 21.4758 13.7848 21.252 13.6763 20.99C13.5679 20.7281 13.5395 20.4399 13.5948 20.1619C13.6501 19.8839 13.7866 19.6285 13.987 19.428C14.1875 19.2276 14.4429 19.091 14.7209 19.0357C14.999 18.9804 15.2872 19.0088 15.5491 19.1173C15.811 19.2258 16.0348 19.4095 16.1923 19.6452C16.3498 19.8809 16.4339 20.158 16.4339 20.4415C16.4339 20.8217 16.2829 21.1862 16.0141 21.4551C15.7453 21.7239 15.3807 21.8749 15.0006 21.8749Z" fill="#FBBC05" fill-opacity="0.24"/>
</g>
<defs>
<clipPath id="clip0_574_5581">
<rect width="30" height="30" fill="white"/>
</clipPath>
</defs>
</svg>
