<svg width="23" height="36" viewBox="0 0 23 36" fill="none" xmlns="http://www.w3.org/2000/svg">
<g id="Layer x0020 1">
<g id="1421394342400">
<g id="Group">
<path id="Vector" d="M15.4094 2.34331L15.0747 3.02061L11.4604 23.7366L11.634 23.983L22.2416 19.9766L15.4094 2.34331Z" fill="#C1CCF8"/>
<path id="Vector_2" d="M15.4053 2.34276L3.00532 16.6207L11.6298 23.9824L13.3841 13.9275L15.4053 2.34276Z" fill="white"/>
<path id="Vector_3" d="M11.3148 25.8034L11.1711 25.9272L9.88366 33.3065L9.94179 33.673L21.9278 21.8009L11.3148 25.8034Z" fill="#C1CCF8"/>
<path id="Vector_4" d="M9.93561 33.6738L11.3086 25.8042L2.68359 18.4453L9.93561 33.6738Z" fill="white"/>
<path id="Vector_5" d="M11.6364 23.9837L22.244 19.9773L13.3906 13.9287L11.6364 23.9837Z" fill="#8197EE"/>
<path id="Vector_6" d="M3.00695 16.6199L11.6315 23.9817L13.3857 13.9267L3.00695 16.6199Z" fill="#C1CCF8"/>
</g>
</g>
</g>
</svg>
