<svg width="256" height="305" viewBox="0 0 256 305" fill="none" xmlns="http://www.w3.org/2000/svg">
<g clip-path="url(#clip0_574_5659)">
<g opacity="0.8" filter="url(#filter0_f_574_5659)">
<path d="M233.044 -144.872C242.049 -148.715 252.591 -144.546 255.193 -135.108C259.36 -119.993 260.814 -104.209 259.435 -88.4964C257.539 -66.8768 250.339 -46.0586 238.475 -27.8859C226.611 -9.71324 210.448 5.25304 191.419 15.6872C172.389 26.1214 151.08 31.7014 129.378 31.9329C107.677 32.1645 86.2532 27.0404 67.0051 17.0146C47.757 6.98887 31.2786 -7.62914 19.0294 -25.5446C6.78027 -43.46 -0.861529 -64.1198 -3.21906 -85.694C-4.9325 -101.374 -3.81618 -117.185 0.0278854 -132.386C2.42825 -141.877 12.8783 -146.27 21.963 -142.62C31.0476 -138.97 35.2761 -128.648 33.3469 -119.049C31.4023 -109.375 30.946 -99.4243 32.0255 -89.5453C33.7497 -73.7671 39.3385 -58.6577 48.2968 -45.5553C57.2552 -32.453 69.3066 -21.7621 83.3836 -14.4298C97.4606 -7.09755 113.129 -3.35009 129 -3.51943C144.871 -3.68877 160.456 -7.76967 174.373 -15.4007C188.29 -23.0316 200.111 -33.9772 208.788 -47.2677C217.464 -60.5582 222.73 -75.7835 224.117 -91.5949C224.985 -101.495 224.317 -111.433 222.166 -121.064C220.032 -130.619 224.04 -141.029 233.044 -144.872Z" fill="#FF4E17"/>
</g>
<g opacity="0.8" filter="url(#filter1_f_574_5659)">
<path d="M22.8969 449.813C13.8922 453.656 3.35082 449.487 0.748467 440.049C-3.41904 424.934 -4.87247 409.15 -3.49396 393.437C-1.59729 371.817 5.60196 350.999 17.4661 332.826C29.3302 314.654 45.493 299.687 64.5228 289.253C83.5525 278.819 104.862 273.239 126.563 273.008C148.265 272.776 169.688 277.9 188.936 287.926C208.184 297.952 224.663 312.57 236.912 330.485C249.161 348.4 256.803 369.06 259.16 390.634C260.874 406.314 259.758 422.126 255.914 437.326C253.513 446.818 243.063 451.21 233.978 447.561C224.894 443.911 220.665 433.588 222.595 423.989C224.539 414.315 224.995 404.365 223.916 394.486C222.192 378.708 216.603 363.598 207.645 350.496C198.686 337.393 186.635 326.703 172.558 319.37C158.481 312.038 142.813 308.291 126.942 308.46C111.07 308.629 95.4858 312.71 81.5685 320.341C67.6511 327.972 55.8305 338.918 47.1538 352.208C38.477 365.499 33.2119 380.724 31.8247 396.535C30.9562 406.435 31.6248 416.373 33.7753 426.004C35.9089 435.559 31.9017 445.97 22.8969 449.813Z" fill="#FF4E17"/>
</g>
<g filter="url(#filter2_b_574_5659)">
<rect x="0.35" y="0.35" width="255.3" height="304.3" rx="11.65" stroke="url(#paint0_linear_574_5659)" stroke-opacity="0.3" stroke-width="0.7"/>
<path d="M32.096 106L40.064 83.12H44.864L52.928 106H48.096L46.56 101.136H38.304L36.8 106H32.096ZM41.44 90.992L39.392 97.584H45.44L43.392 90.992L42.464 87.472H42.4C42.016 89.008 41.696 90.1813 41.44 90.992ZM55.2057 106V83.12H59.5577V106H55.2057ZM63.127 106V83.12H67.479V106H63.127ZM77.3513 106V83.12H94.1833V87.024H81.9913V92.144H92.6793V95.952H81.9913V102.128H94.2793V106H77.3513ZM103.82 106L96.1077 83.12H100.972L105.004 96.368L105.996 100.016H106.06C106.422 98.5653 106.753 97.3493 107.052 96.368L111.052 83.12H115.756L108.044 106H103.82ZM118.225 106V83.12H124.753L127.985 94.608C128.22 95.4613 128.454 96.4107 128.689 97.456C128.945 98.48 129.137 99.2907 129.265 99.888L129.425 100.784H129.489C129.894 98.5867 130.364 96.528 130.897 94.608L134.129 83.12H140.753V106H136.433V92.88L136.625 88.144H136.561C136.22 89.936 135.889 91.3867 135.569 92.496L131.633 106H127.185L123.345 92.496L122.353 88.144H122.289C122.417 90.064 122.481 91.6427 122.481 92.88V106H118.225ZM151.232 106.48C148.885 106.48 147.05 105.968 145.728 104.944C144.405 103.899 143.68 102.48 143.552 100.688H147.584C147.861 102.501 149.056 103.408 151.168 103.408C152.128 103.408 152.864 103.237 153.376 102.896C153.909 102.555 154.176 102.096 154.176 101.52C154.176 101.307 154.133 101.115 154.048 100.944C153.984 100.773 153.856 100.624 153.664 100.496C153.493 100.347 153.333 100.229 153.184 100.144C153.056 100.059 152.821 99.9733 152.48 99.888C152.138 99.8027 151.872 99.7387 151.68 99.696C151.509 99.6533 151.2 99.6 150.752 99.536C150.325 99.4507 150.026 99.3867 149.856 99.344C148.96 99.1733 148.224 99.0027 147.648 98.832C147.093 98.64 146.506 98.3733 145.888 98.032C145.269 97.6693 144.8 97.1893 144.48 96.592C144.181 95.9733 144.032 95.2373 144.032 94.384C144.032 92.6773 144.65 91.376 145.888 90.48C147.146 89.584 148.757 89.136 150.72 89.136C152.832 89.136 154.485 89.6267 155.68 90.608C156.896 91.568 157.589 92.8907 157.76 94.576H153.824C153.653 92.976 152.597 92.176 150.656 92.176C149.781 92.176 149.088 92.336 148.576 92.656C148.085 92.976 147.84 93.424 147.84 94C147.84 94.192 147.872 94.3733 147.936 94.544C148.021 94.6933 148.149 94.832 148.32 94.96C148.512 95.0667 148.693 95.1627 148.864 95.248C149.034 95.312 149.28 95.3867 149.6 95.472C149.92 95.536 150.197 95.6 150.432 95.664C150.666 95.7067 150.986 95.7707 151.392 95.856C151.797 95.92 152.117 95.9733 152.352 96.016C153.034 96.1653 153.589 96.304 154.016 96.432C154.464 96.5387 154.976 96.7307 155.552 97.008C156.128 97.264 156.576 97.5627 156.896 97.904C157.237 98.224 157.525 98.672 157.76 99.248C158.016 99.8027 158.144 100.453 158.144 101.2C158.144 102.821 157.504 104.112 156.224 105.072C154.965 106.011 153.301 106.48 151.232 106.48ZM160.523 111.312V109.744C162.059 108.955 162.827 107.707 162.827 106H160.491V101.36H165.163V105.744C165.163 107.28 164.715 108.528 163.819 109.488C162.944 110.469 161.845 111.077 160.523 111.312ZM43.744 144C43.5307 143.723 43.36 143.115 43.232 142.176H43.168C42.6987 142.88 42.1013 143.424 41.376 143.808C40.6507 144.192 39.6373 144.384 38.336 144.384C36.608 144.384 35.2213 143.947 34.176 143.072C33.1307 142.197 32.608 140.96 32.608 139.36C32.608 137.696 33.184 136.48 34.336 135.712C35.488 134.923 37.1093 134.379 39.2 134.08C40.736 133.867 41.7813 133.653 42.336 133.44C42.8907 133.205 43.168 132.8 43.168 132.224C43.168 131.627 42.9333 131.157 42.464 130.816C41.9947 130.453 41.312 130.272 40.416 130.272C38.432 130.272 37.376 131.04 37.248 132.576H33.376C33.44 131.019 34.0693 129.728 35.264 128.704C36.4587 127.68 38.1867 127.168 40.448 127.168C45.056 127.168 47.36 129.184 47.36 133.216V141.568C47.36 142.805 47.552 143.563 47.936 143.84V144H43.744ZM39.392 141.344C40.5867 141.344 41.5253 141.035 42.208 140.416C42.912 139.797 43.264 139.061 43.264 138.208V135.744C42.7947 136.021 41.7813 136.341 40.224 136.704C38.9867 136.981 38.112 137.301 37.6 137.664C37.088 138.005 36.832 138.539 36.832 139.264C36.832 140.651 37.6853 141.344 39.392 141.344ZM55.0227 127.584V129.824H55.1187C56.2494 128.032 57.8707 127.136 59.9827 127.136C61.6681 127.136 63.0334 127.712 64.0787 128.864C65.1241 129.995 65.6467 131.467 65.6467 133.28V144H61.2948V133.92C61.2948 133.024 61.0388 132.299 60.5267 131.744C60.0361 131.189 59.3427 130.912 58.4467 130.912C57.4867 130.912 56.6867 131.264 56.0467 131.968C55.4281 132.672 55.1187 133.579 55.1187 134.688V144H50.7667V127.584H55.0227ZM75.1132 144.48C73.0439 144.48 71.3692 143.701 70.0892 142.144C68.8092 140.565 68.1692 138.453 68.1692 135.808C68.1692 133.248 68.8199 131.168 70.1212 129.568C71.4439 127.947 73.1292 127.136 75.1772 127.136C77.2252 127.136 78.7719 127.947 79.8172 129.568H79.9132V121.12H84.2652V144H80.0732V141.856H80.0092C78.9426 143.605 77.3106 144.48 75.1132 144.48ZM76.0732 140.832C77.3532 140.832 78.3239 140.395 78.9852 139.52C79.6679 138.645 80.0092 137.44 80.0092 135.904C80.0092 132.405 78.7399 130.656 76.2012 130.656C75.0279 130.656 74.1319 131.125 73.5132 132.064C72.8946 133.003 72.5852 134.251 72.5852 135.808C72.5852 137.408 72.8839 138.645 73.4812 139.52C74.0999 140.395 74.9639 140.832 76.0732 140.832ZM93.7493 144V127.584H97.9413V129.792H98.0373C99.0826 128.021 100.672 127.136 102.805 127.136C103.829 127.136 104.736 127.403 105.525 127.936C106.336 128.448 106.944 129.141 107.349 130.016H107.413C108.608 128.096 110.251 127.136 112.341 127.136C114.048 127.136 115.371 127.659 116.309 128.704C117.269 129.728 117.749 131.147 117.749 132.96V144H113.397V133.696C113.397 131.819 112.555 130.88 110.869 130.88C109.952 130.88 109.227 131.211 108.693 131.872C108.181 132.512 107.925 133.376 107.925 134.464V144H103.573V133.696C103.573 131.819 102.731 130.88 101.045 130.88C100.171 130.88 99.4559 131.211 98.9013 131.872C98.3679 132.512 98.1013 133.376 98.1013 134.464V144H93.7493ZM131.413 144C131.199 143.723 131.029 143.115 130.901 142.176H130.837C130.367 142.88 129.77 143.424 129.045 143.808C128.319 144.192 127.306 144.384 126.005 144.384C124.277 144.384 122.89 143.947 121.845 143.072C120.799 142.197 120.277 140.96 120.277 139.36C120.277 137.696 120.853 136.48 122.005 135.712C123.157 134.923 124.778 134.379 126.869 134.08C128.405 133.867 129.45 133.653 130.005 133.44C130.559 133.205 130.837 132.8 130.837 132.224C130.837 131.627 130.602 131.157 130.133 130.816C129.663 130.453 128.981 130.272 128.085 130.272C126.101 130.272 125.045 131.04 124.917 132.576H121.045C121.109 131.019 121.738 129.728 122.933 128.704C124.127 127.68 125.855 127.168 128.117 127.168C132.725 127.168 135.029 129.184 135.029 133.216V141.568C135.029 142.805 135.221 143.563 135.605 143.84V144H131.413ZM127.061 141.344C128.255 141.344 129.194 141.035 129.877 140.416C130.581 139.797 130.933 139.061 130.933 138.208V135.744C130.463 136.021 129.45 136.341 127.893 136.704C126.655 136.981 125.781 137.301 125.269 137.664C124.757 138.005 124.501 138.539 124.501 139.264C124.501 140.651 125.354 141.344 127.061 141.344ZM138.179 149.408C137.198 149.408 136.377 149.344 135.715 149.216V146.112C136.697 146.091 137.39 145.973 137.795 145.76C138.222 145.568 138.435 145.12 138.435 144.416V127.584H142.787V144.64C142.787 146.304 142.425 147.499 141.699 148.224C140.931 149.013 139.758 149.408 138.179 149.408ZM138.435 125.024V121.12H142.787V125.024H138.435ZM160.184 142.016C158.584 143.659 156.525 144.48 154.008 144.48C151.49 144.48 149.432 143.659 147.832 142.016C146.232 140.352 145.432 138.283 145.432 135.808C145.432 133.333 146.232 131.275 147.832 129.632C149.432 127.968 151.49 127.136 154.008 127.136C156.525 127.136 158.584 127.968 160.184 129.632C161.784 131.275 162.584 133.333 162.584 135.808C162.584 138.283 161.784 140.352 160.184 142.016ZM154.008 141.152C155.309 141.152 156.322 140.672 157.048 139.712C157.794 138.731 158.168 137.429 158.168 135.808C158.168 134.187 157.794 132.885 157.048 131.904C156.322 130.923 155.309 130.432 154.008 130.432C152.685 130.432 151.661 130.923 150.936 131.904C150.21 132.864 149.848 134.165 149.848 135.808C149.848 137.429 150.21 138.731 150.936 139.712C151.661 140.672 152.685 141.152 154.008 141.152ZM169.439 127.584V130.208H169.535C170.047 129.248 170.612 128.544 171.231 128.096C171.849 127.627 172.628 127.392 173.567 127.392C174.015 127.392 174.356 127.435 174.591 127.52V131.328H174.495C173.023 131.179 171.839 131.499 170.943 132.288C170.047 133.077 169.599 134.315 169.599 136V144H165.247V127.584H169.439ZM37.664 165.584V167.824H37.76C38.8907 166.032 40.512 165.136 42.624 165.136C44.3093 165.136 45.6747 165.712 46.72 166.864C47.7653 167.995 48.288 169.467 48.288 171.28V182H43.936V171.92C43.936 171.024 43.68 170.299 43.168 169.744C42.6773 169.189 41.984 168.912 41.088 168.912C40.128 168.912 39.328 169.264 38.688 169.968C38.0693 170.672 37.76 171.579 37.76 172.688V182H33.408V165.584H37.664ZM65.5625 180.016C63.9625 181.659 61.9038 182.48 59.3865 182.48C56.8692 182.48 54.8105 181.659 53.2105 180.016C51.6105 178.352 50.8105 176.283 50.8105 173.808C50.8105 171.333 51.6105 169.275 53.2105 167.632C54.8105 165.968 56.8692 165.136 59.3865 165.136C61.9038 165.136 63.9625 165.968 65.5625 167.632C67.1625 169.275 67.9625 171.333 67.9625 173.808C67.9625 176.283 67.1625 178.352 65.5625 180.016ZM59.3865 179.152C60.6878 179.152 61.7012 178.672 62.4265 177.712C63.1732 176.731 63.5465 175.429 63.5465 173.808C63.5465 172.187 63.1732 170.885 62.4265 169.904C61.7012 168.923 60.6878 168.432 59.3865 168.432C58.0638 168.432 57.0398 168.923 56.3145 169.904C55.5892 170.864 55.2265 172.165 55.2265 173.808C55.2265 175.429 55.5892 176.731 56.3145 177.712C57.0398 178.672 58.0638 179.152 59.3865 179.152ZM74.8815 165.584V167.824H74.9775C76.1082 166.032 77.7295 165.136 79.8415 165.136C81.5268 165.136 82.8922 165.712 83.9375 166.864C84.9828 167.995 85.5055 169.467 85.5055 171.28V182H81.1535V171.92C81.1535 171.024 80.8975 170.299 80.3855 169.744C79.8948 169.189 79.2015 168.912 78.3055 168.912C77.3455 168.912 76.5455 169.264 75.9055 169.968C75.2868 170.672 74.9775 171.579 74.9775 172.688V182H70.6255V165.584H74.8815ZM88.508 175.952V172.208H97.18V175.952H88.508ZM100.664 182V159.12H117.496V163.024H105.304V168.144H115.992V171.952H105.304V178.128H117.592V182H100.664ZM127.132 182L119.42 159.12H124.284L128.316 172.368L129.308 176.016H129.372C129.735 174.565 130.066 173.349 130.364 172.368L134.364 159.12H139.068L131.356 182H127.132ZM141.537 182V159.12H148.065L151.297 170.608C151.532 171.461 151.767 172.411 152.001 173.456C152.257 174.48 152.449 175.291 152.577 175.888L152.737 176.784H152.801C153.207 174.587 153.676 172.528 154.209 170.608L157.441 159.12H164.065V182H159.745V168.88L159.937 164.144H159.873C159.532 165.936 159.201 167.387 158.881 168.496L154.945 182H150.497L146.657 168.496L145.665 164.144H145.601C145.729 166.064 145.793 167.643 145.793 168.88V182H141.537ZM177.104 182.512C174.011 182.512 171.611 181.861 169.904 180.56C168.197 179.237 167.301 177.36 167.216 174.928H171.76C171.909 176.293 172.389 177.275 173.2 177.872C174.032 178.469 175.269 178.768 176.912 178.768C178.213 178.768 179.28 178.533 180.112 178.064C180.944 177.573 181.36 176.827 181.36 175.824C181.36 175.461 181.307 175.141 181.2 174.864C181.115 174.565 180.923 174.309 180.624 174.096C180.325 173.861 180.069 173.68 179.856 173.552C179.643 173.403 179.248 173.253 178.672 173.104C178.096 172.933 177.659 172.816 177.36 172.752C177.061 172.667 176.507 172.528 175.696 172.336C174.715 172.101 173.904 171.899 173.264 171.728C172.645 171.557 171.952 171.291 171.184 170.928C170.437 170.565 169.84 170.171 169.392 169.744C168.965 169.296 168.603 168.72 168.304 168.016C168.005 167.291 167.856 166.469 167.856 165.552C167.856 163.355 168.656 161.669 170.256 160.496C171.877 159.301 174 158.704 176.624 158.704C179.227 158.704 181.307 159.323 182.864 160.56C184.421 161.797 185.285 163.557 185.456 165.84H181.008C180.88 164.731 180.411 163.877 179.6 163.28C178.811 162.683 177.808 162.384 176.592 162.384C175.333 162.384 174.331 162.629 173.584 163.12C172.837 163.611 172.464 164.261 172.464 165.072C172.464 165.947 172.827 166.587 173.552 166.992C174.299 167.397 175.6 167.803 177.456 168.208C178.565 168.443 179.472 168.667 180.176 168.88C180.88 169.072 181.637 169.36 182.448 169.744C183.28 170.107 183.92 170.512 184.368 170.96C184.837 171.408 185.221 172.005 185.52 172.752C185.84 173.477 186 174.32 186 175.28C186 177.541 185.179 179.312 183.536 180.592C181.893 181.872 179.749 182.512 177.104 182.512ZM188.679 187.312V185.744C190.215 184.955 190.983 183.707 190.983 182H188.647V177.36H193.319V181.744C193.319 183.28 192.871 184.528 191.975 185.488C191.1 186.469 190.002 187.077 188.679 187.312ZM40.064 220.48C37.7173 220.48 35.8827 219.968 34.56 218.944C33.2373 217.899 32.512 216.48 32.384 214.688H36.416C36.6933 216.501 37.888 217.408 40 217.408C40.96 217.408 41.696 217.237 42.208 216.896C42.7413 216.555 43.008 216.096 43.008 215.52C43.008 215.307 42.9653 215.115 42.88 214.944C42.816 214.773 42.688 214.624 42.496 214.496C42.3253 214.347 42.1653 214.229 42.016 214.144C41.888 214.059 41.6533 213.973 41.312 213.888C40.9707 213.803 40.704 213.739 40.512 213.696C40.3413 213.653 40.032 213.6 39.584 213.536C39.1573 213.451 38.8587 213.387 38.688 213.344C37.792 213.173 37.056 213.003 36.48 212.832C35.9253 212.64 35.3387 212.373 34.72 212.032C34.1013 211.669 33.632 211.189 33.312 210.592C33.0133 209.973 32.864 209.237 32.864 208.384C32.864 206.677 33.4827 205.376 34.72 204.48C35.9787 203.584 37.5893 203.136 39.552 203.136C41.664 203.136 43.3173 203.627 44.512 204.608C45.728 205.568 46.4213 206.891 46.592 208.576H42.656C42.4853 206.976 41.4293 206.176 39.488 206.176C38.6133 206.176 37.92 206.336 37.408 206.656C36.9173 206.976 36.672 207.424 36.672 208C36.672 208.192 36.704 208.373 36.768 208.544C36.8533 208.693 36.9813 208.832 37.152 208.96C37.344 209.067 37.5253 209.163 37.696 209.248C37.8667 209.312 38.112 209.387 38.432 209.472C38.752 209.536 39.0293 209.6 39.264 209.664C39.4987 209.707 39.8187 209.771 40.224 209.856C40.6293 209.92 40.9493 209.973 41.184 210.016C41.8667 210.165 42.4213 210.304 42.848 210.432C43.296 210.539 43.808 210.731 44.384 211.008C44.96 211.264 45.408 211.563 45.728 211.904C46.0693 212.224 46.3573 212.672 46.592 213.248C46.848 213.803 46.976 214.453 46.976 215.2C46.976 216.821 46.336 218.112 45.056 219.072C43.7973 220.011 42.1333 220.48 40.064 220.48ZM64.1392 220H59.9473V218.08H59.8512C59.2539 218.891 58.5926 219.488 57.8672 219.872C57.1632 220.256 56.2566 220.448 55.1472 220.448C53.3552 220.448 51.9579 219.915 50.9552 218.848C49.9526 217.781 49.4512 216.341 49.4512 214.528V203.584H53.7712V213.792C53.7712 215.776 54.6779 216.768 56.4913 216.768C57.4939 216.768 58.2939 216.427 58.8912 215.744C59.4886 215.061 59.7872 214.165 59.7872 213.056V203.584H64.1392V220ZM67.5942 225.376V203.584H71.7862V205.632H71.8822C73.0982 203.968 74.7089 203.136 76.7142 203.136C78.8689 203.136 80.5969 203.936 81.8982 205.536C83.1996 207.136 83.8503 209.227 83.8503 211.808C83.8503 214.453 83.1996 216.565 81.8982 218.144C80.5969 219.701 78.8796 220.48 76.7462 220.48C74.6129 220.48 73.0342 219.701 72.0102 218.144H71.9462V225.376H67.5942ZM75.8182 216.864C76.9276 216.864 77.8022 216.427 78.4422 215.552C79.1036 214.677 79.4342 213.472 79.4342 211.936C79.4342 210.293 79.1249 209.003 78.5062 208.064C77.8876 207.125 76.9382 206.656 75.6582 206.656C74.3569 206.656 73.3969 207.147 72.7782 208.128C72.1596 209.088 71.8502 210.357 71.8502 211.936C71.8502 213.451 72.1916 214.656 72.8742 215.552C73.5569 216.427 74.5382 216.864 75.8182 216.864ZM86.5155 225.376V203.584H90.7075V205.632H90.8035C92.0195 203.968 93.6302 203.136 95.6355 203.136C97.7902 203.136 99.5182 203.936 100.819 205.536C102.121 207.136 102.771 209.227 102.771 211.808C102.771 214.453 102.121 216.565 100.819 218.144C99.5182 219.701 97.8008 220.48 95.6675 220.48C93.5342 220.48 91.9555 219.701 90.9315 218.144H90.8675V225.376H86.5155ZM94.7395 216.864C95.8488 216.864 96.7235 216.427 97.3635 215.552C98.0248 214.677 98.3555 213.472 98.3555 211.936C98.3555 210.293 98.0462 209.003 97.4275 208.064C96.8088 207.125 95.8595 206.656 94.5795 206.656C93.2782 206.656 92.3182 207.147 91.6995 208.128C91.0808 209.088 90.7715 210.357 90.7715 211.936C90.7715 213.451 91.1128 214.656 91.7955 215.552C92.4782 216.427 93.4595 216.864 94.7395 216.864ZM119.389 218.016C117.789 219.659 115.73 220.48 113.213 220.48C110.695 220.48 108.637 219.659 107.037 218.016C105.437 216.352 104.637 214.283 104.637 211.808C104.637 209.333 105.437 207.275 107.037 205.632C108.637 203.968 110.695 203.136 113.213 203.136C115.73 203.136 117.789 203.968 119.389 205.632C120.989 207.275 121.789 209.333 121.789 211.808C121.789 214.283 120.989 216.352 119.389 218.016ZM113.213 217.152C114.514 217.152 115.527 216.672 116.253 215.712C116.999 214.731 117.373 213.429 117.373 211.808C117.373 210.187 116.999 208.885 116.253 207.904C115.527 206.923 114.514 206.432 113.213 206.432C111.89 206.432 110.866 206.923 110.141 207.904C109.415 208.864 109.053 210.165 109.053 211.808C109.053 213.429 109.415 214.731 110.141 215.712C110.866 216.672 111.89 217.152 113.213 217.152ZM128.644 203.584V206.208H128.74C129.252 205.248 129.817 204.544 130.436 204.096C131.054 203.627 131.833 203.392 132.772 203.392C133.22 203.392 133.561 203.435 133.796 203.52V207.328H133.7C132.228 207.179 131.044 207.499 130.148 208.288C129.252 209.077 128.804 210.315 128.804 212V220H124.452V203.584H128.644ZM135.507 206.464V203.584H137.779V198.464H142.035V203.584H144.851V206.464H142.035V215.168C142.035 216.256 142.579 216.8 143.667 216.8L144.947 216.768V219.968C144.285 220.011 143.379 220.032 142.227 220.032C140.968 220.032 139.912 219.733 139.059 219.136C138.205 218.517 137.779 217.504 137.779 216.096V206.464H135.507ZM155.288 220.48C152.642 220.48 150.562 219.669 149.048 218.048C147.533 216.405 146.776 214.315 146.776 211.776C146.776 209.323 147.533 207.275 149.048 205.632C150.562 203.968 152.504 203.136 154.872 203.136C157.453 203.136 159.448 204.032 160.856 205.824C162.264 207.616 162.968 210.016 162.968 213.024H151.064C151.234 214.325 151.672 215.339 152.376 216.064C153.08 216.768 154.04 217.12 155.256 217.12C156.856 217.12 157.912 216.448 158.424 215.104H162.712C162.392 216.64 161.581 217.92 160.28 218.944C158.978 219.968 157.314 220.48 155.288 220.48ZM154.936 206.496C152.824 206.496 151.554 207.669 151.128 210.016H158.424C158.36 208.971 158.008 208.128 157.368 207.488C156.728 206.827 155.917 206.496 154.936 206.496ZM171.766 220.48C169.696 220.48 168.022 219.701 166.742 218.144C165.462 216.565 164.822 214.453 164.822 211.808C164.822 209.248 165.472 207.168 166.774 205.568C168.096 203.947 169.782 203.136 171.83 203.136C173.878 203.136 175.424 203.947 176.47 205.568H176.566V197.12H180.918V220H176.726V217.856H176.662C175.595 219.605 173.963 220.48 171.766 220.48ZM172.726 216.832C174.006 216.832 174.976 216.395 175.638 215.52C176.32 214.645 176.662 213.44 176.662 211.904C176.662 208.405 175.392 206.656 172.854 206.656C171.68 206.656 170.784 207.125 170.166 208.064C169.547 209.003 169.238 210.251 169.238 211.808C169.238 213.408 169.536 214.645 170.134 215.52C170.752 216.395 171.616 216.832 172.726 216.832ZM184.131 220V215.36H188.803V220H184.131Z" fill="white" fill-opacity="0.85"/>
</g>
</g>
<defs>
<filter id="filter0_f_574_5659" x="-44" y="-186.295" width="343.939" height="258.235" filterUnits="userSpaceOnUse" color-interpolation-filters="sRGB">
<feFlood flood-opacity="0" result="BackgroundImageFix"/>
<feBlend mode="normal" in="SourceGraphic" in2="BackgroundImageFix" result="shape"/>
<feGaussianBlur stdDeviation="20" result="effect1_foregroundBlur_574_5659"/>
</filter>
<filter id="filter1_f_574_5659" x="-43.998" y="233" width="343.939" height="258.235" filterUnits="userSpaceOnUse" color-interpolation-filters="sRGB">
<feFlood flood-opacity="0" result="BackgroundImageFix"/>
<feBlend mode="normal" in="SourceGraphic" in2="BackgroundImageFix" result="shape"/>
<feGaussianBlur stdDeviation="20" result="effect1_foregroundBlur_574_5659"/>
</filter>
<filter id="filter2_b_574_5659" x="-100" y="-100" width="456" height="505" filterUnits="userSpaceOnUse" color-interpolation-filters="sRGB">
<feFlood flood-opacity="0" result="BackgroundImageFix"/>
<feGaussianBlur in="BackgroundImageFix" stdDeviation="50"/>
<feComposite in2="SourceAlpha" operator="in" result="effect1_backgroundBlur_574_5659"/>
<feBlend mode="normal" in="SourceGraphic" in2="effect1_backgroundBlur_574_5659" result="shape"/>
</filter>
<linearGradient id="paint0_linear_574_5659" x1="-1.53564e-07" y1="11.2015" x2="302.524" y2="77.28" gradientUnits="userSpaceOnUse">
<stop stop-color="white"/>
<stop offset="0.325893" stop-color="white" stop-opacity="0.256139"/>
<stop offset="0.695684" stop-color="white" stop-opacity="0.735087"/>
<stop offset="1" stop-color="white" stop-opacity="0.07"/>
</linearGradient>
<clipPath id="clip0_574_5659">
<rect width="256" height="305" rx="12" fill="white"/>
</clipPath>
</defs>
</svg>
