<svg width="84" height="28" viewBox="0 0 84 28" fill="none" xmlns="http://www.w3.org/2000/svg">
<rect x="4.81213" y="3.06262" width="20.8542" height="21.875" fill="#101010"/>
<path fill-rule="evenodd" clip-rule="evenodd" d="M6.66667 0C2.98477 0 0 2.98477 0 6.66667V21.3333C0 25.0152 2.98477 28 6.66667 28H21.3333C25.0152 28 28 25.0152 28 21.3333V6.66667C28 2.98477 25.0152 0 21.3333 0H6.66667ZM14.5485 7.1039C14.5485 6.9835 14.4719 6.87643 14.3579 6.83767L7.37187 4.4599C7.18943 4.3978 7 4.53343 7 4.72617V7.25217C7 7.8783 7.4232 8.43817 8.06047 8.65507L13.488 10.5025C14.123 10.7186 14.5454 11.2752 14.5485 11.8986V14.8086L7.3719 12.366C7.18947 12.3039 7.00003 12.4395 7.00003 12.6323V15.1583C7.00003 15.7844 7.42323 16.3443 8.0605 16.5612L11.4413 17.7119V23.3854C11.4413 23.5407 11.5672 23.6667 11.7225 23.6667H14.2697C14.4252 23.6667 14.5512 23.5405 14.551 23.385L14.5449 18.7682L14.5485 18.7695L14.5485 14.8086L21.0365 12.6003C21.6738 12.3834 22.097 11.8236 22.097 11.1974V8.76963C22.097 8.52873 21.8602 8.3592 21.6321 8.43683L14.5485 10.8478V7.1039Z" fill="#FAFAFA"/>
<path d="M45.9533 12.0835H41.5689V19.1577C41.5689 20.5527 42.2664 21.001 43.5617 21.001C44.4586 21.001 45.1063 20.9512 45.9533 20.7519V23.9403C44.907 24.2392 43.8607 24.3388 42.7646 24.3388C39.7254 24.3388 37.9816 22.8442 37.9816 19.9548V12.0835H34.9922V9.09438H37.9816L38.3801 5.10889H41.5689V9.09438H45.9533V12.0835Z" fill="#FAFAFA"/>
<path d="M57.6652 8.89502C58.0638 8.89502 58.5123 8.94484 58.9108 8.99466L58.8611 12.3824C58.1137 12.2826 57.3663 12.2329 56.6688 12.2329C54.3769 12.2329 52.7826 13.4783 52.7826 15.8198V24.0398H49.1953V9.0943H52.384L52.5833 11.4357C53.6794 9.84161 55.473 8.89502 57.6652 8.89502Z" fill="#FAFAFA"/>
<path d="M61.6953 7.10099V3.9126H65.5815V7.10099H61.6953ZM61.8448 24.0392V9.09373H65.432V24.0392H61.8448Z" fill="#FAFAFA"/>
<path d="M82.6789 20.9511H83.2768V24.0398C83.0277 24.0897 82.6291 24.1395 81.9814 24.1395C80.138 24.1395 79.1913 23.442 78.9422 21.8479C77.8461 23.3424 75.903 24.2889 73.7108 24.2889C70.821 24.2889 68.8281 22.5453 68.8281 19.9049C68.8281 16.1187 72.4153 15.3715 75.2553 15.0227C77.1983 14.7737 78.4439 14.5246 78.4439 13.5282C78.4439 12.482 77.3478 11.7845 75.5542 11.7845C73.9599 11.7845 72.515 12.4321 71.3192 13.6278L69.1768 11.386C70.9206 9.7419 73.1129 8.84521 75.7535 8.84521C79.54 8.84521 81.7821 10.7383 81.7821 13.827V20.0544C81.7821 20.6522 82.0811 20.9511 82.6789 20.9511ZM74.4581 21.4493C76.6005 21.4493 78.3443 20.0046 78.3443 18.2609V16.7165C77.7464 17.0653 76.8995 17.2147 75.6539 17.414C73.9599 17.7129 72.3157 17.962 72.3157 19.606C72.3157 20.7518 73.1129 21.4493 74.4581 21.4493Z" fill="#FAFAFA"/>
</svg>
