<svg width="24" height="25" viewBox="0 0 24 25" fill="none" xmlns="http://www.w3.org/2000/svg">
<path d="M21.53 16.43C21.37 16.16 20.92 15.74 19.8 15.94C19.18 16.05 18.55 16.1 17.92 16.07C15.59 15.97 13.48 14.9 12.01 13.25C10.71 11.8 9.90995 9.90999 9.89995 7.86999C9.89995 6.72999 10.12 5.62999 10.57 4.58999C11.01 3.57999 10.7 3.04999 10.48 2.82999C10.25 2.59999 9.70995 2.27999 8.64995 2.71999C4.55995 4.43999 2.02995 8.53999 2.32995 12.93C2.62995 17.06 5.52995 20.59 9.36995 21.92C10.29 22.24 11.26 22.43 12.26 22.47C12.42 22.48 12.58 22.49 12.74 22.49C16.09 22.49 19.23 20.91 21.21 18.22C21.88 17.29 21.7 16.7 21.53 16.43Z" fill="white"/>
</svg>
