<svg width="145" height="32" viewBox="0 0 145 32" fill="none" xmlns="http://www.w3.org/2000/svg">
<g filter="url(#filter0_iiii_574_2336)">
<path d="M22.4717 0H9.53836C4.27047 0 0 4.26912 0 9.53535V22.4646C0 27.7309 4.27047 32 9.53836 32H22.4717C27.7396 32 32.0101 27.7309 32.0101 22.4646V9.53535C32.0101 4.26912 27.7396 0 22.4717 0Z" fill="url(#paint0_linear_574_2336)"/>
</g>
<path d="M9.53836 0.118765H22.4717C27.6741 0.118765 31.8913 4.33475 31.8913 9.53535V22.4646C31.8913 27.6652 27.6741 31.8812 22.4717 31.8812H9.53836C4.33602 31.8812 0.118765 27.6652 0.118765 22.4646V9.53535C0.118765 4.33475 4.33602 0.118765 9.53836 0.118765Z" stroke="url(#paint1_linear_574_2336)" stroke-width="0.23753"/>
<path d="M21.5008 3.23242H10.5074C6.48956 3.23242 3.23242 6.48853 3.23242 10.5051V21.495C3.23242 25.5117 6.48956 28.7678 10.5074 28.7678H21.5008C25.5187 28.7678 28.7758 25.5117 28.7758 21.495V10.5051C28.7758 6.48853 25.5187 3.23242 21.5008 3.23242Z" fill="url(#paint2_linear_574_2336)" stroke="url(#paint3_linear_574_2336)" stroke-width="0.0640001"/>
<path d="M19.8852 6.46484H12.1251C9.00012 6.46484 6.4668 8.99737 6.4668 12.1214V19.879C6.4668 23.003 9.00012 25.5356 12.1251 25.5356H19.8852C23.0102 25.5356 25.5435 23.003 25.5435 19.879V12.1214C25.5435 8.99737 23.0102 6.46484 19.8852 6.46484Z" fill="url(#paint4_linear_574_2336)" stroke="url(#paint5_linear_574_2336)" stroke-width="0.0640001"/>
<g filter="url(#filter1_ddddd_574_2336)">
<path d="M16.5011 12.3154V16.987L24.1571 14.3824C24.9091 14.1266 25.4085 13.4662 25.4085 12.7278V9.732C25.4085 9.51275 25.193 9.35844 24.9854 9.42905L16.5011 12.3154Z" fill="url(#paint6_linear_574_2336)"/>
<path d="M16.3276 7.60306C16.4313 7.63836 16.5011 7.73581 16.5011 7.84542V13.5627C16.5011 12.8242 16.0017 12.1639 15.2497 11.9081L8.84513 9.72914C8.09315 9.47331 7.59375 8.81296 7.59375 8.07447V4.98934C7.59375 4.81394 7.76615 4.69048 7.9322 4.74698L16.3276 7.60306Z" fill="url(#paint7_linear_574_2336)"/>
<path d="M16.5011 16.987L16.5011 21.6586L8.84515 19.0541C8.09316 18.7982 7.59377 18.1379 7.59377 17.3994V14.3142C7.59377 14.1389 7.76616 14.0154 7.93222 14.0719L16.5011 16.987Z" fill="url(#paint8_linear_574_2336)"/>
<path fill-rule="evenodd" clip-rule="evenodd" d="M12.8345 17.7106V27.1787C12.8345 27.3201 12.9491 27.4347 13.0905 27.4347H16.2481C16.3896 27.4347 16.5043 27.3199 16.5041 27.1784L16.4917 17.7106H12.8345Z" fill="url(#paint9_linear_574_2336)"/>
</g>
<g filter="url(#filter2_i_574_2336)">
<path d="M46.4191 11.7132V14.5816H43.7799V21.4294C43.7799 22.5406 44.3232 22.8248 45.0995 22.8506C45.4876 22.8506 46.1603 22.8248 46.6261 22.7731V25.7965C46.2121 25.874 45.5394 25.9257 44.582 25.9257C41.8134 25.9257 39.9245 24.6853 39.9504 21.9721V14.5816H38.0098V11.7132H39.9504V8.35392H43.7799V11.7132H46.4191Z" fill="url(#paint10_linear_574_2336)"/>
<path d="M48.0306 25.7448V11.7132H51.7307V14.1423H51.8859C52.4034 12.4109 53.6972 11.5065 55.2756 11.5065C55.6637 11.5065 56.1553 11.5582 56.4917 11.6357V15.0467C56.1294 14.9433 55.4049 14.84 54.8616 14.84C53.1279 14.84 51.8601 16.0545 51.8601 17.76V25.7448H48.0306Z" fill="url(#paint11_linear_574_2336)"/>
<path d="M57.5598 25.7448V11.7132H61.3893V25.7448H57.5598ZM59.4745 9.87853C58.3102 9.87853 57.3787 8.99994 57.3787 7.94047C57.3787 6.85515 58.3102 5.97656 59.4745 5.97656C60.613 5.97656 61.5445 6.85515 61.5445 7.94047C61.5445 8.99994 60.613 9.87853 59.4745 9.87853Z" fill="url(#paint12_linear_574_2336)"/>
<path d="M62.8973 21.817C62.8973 18.6903 65.433 17.6566 68.124 17.5016C69.1331 17.437 71.022 17.3465 71.6171 17.3207V16.1837C71.5912 15.0209 70.7891 14.3232 69.366 14.3232C68.0722 14.3232 67.2442 14.9175 67.0372 15.8736H63.3889C63.6217 13.4446 65.7435 11.5323 69.4695 11.5323C72.5227 11.5323 75.4207 12.9019 75.4207 16.2871V25.7448H71.7982V23.8068H71.6947C70.9961 25.0988 69.6765 26.0032 67.5806 26.0032C64.8896 26.0032 62.8973 24.6078 62.8973 21.817ZM66.5715 21.7136C66.5715 22.799 67.4512 23.3675 68.6673 23.3675C70.401 23.3675 71.643 22.2046 71.6171 20.7317V19.6981C71.0349 19.7239 69.4048 19.8143 68.745 19.8789C67.4254 20.0081 66.5715 20.6283 66.5715 21.7136Z" fill="url(#paint13_linear_574_2336)"/>
</g>
<rect x="87.9219" y="3" width="56" height="26" rx="13" stroke="url(#paint14_linear_574_2336)"/>
<path d="M97.6863 20.556H100.534C101.857 20.556 102.838 20.1453 103.478 19.324C104.129 18.492 104.454 17.324 104.454 15.82C104.454 12.6093 103.185 11.004 100.646 11.004H97.6863V20.556ZM96.6143 21.5V10.06H100.678C102.31 10.06 103.532 10.5773 104.342 11.612C105.164 12.6467 105.574 14.0493 105.574 15.82C105.574 17.5693 105.148 18.956 104.294 19.98C103.452 20.9933 102.209 21.5 100.566 21.5H96.6143ZM110.729 21.708C109.523 21.708 108.579 21.308 107.897 20.508C107.214 19.6973 106.873 18.652 106.873 17.372C106.873 16.1133 107.219 15.0787 107.913 14.268C108.606 13.4467 109.518 13.036 110.649 13.036C111.289 13.036 111.843 13.1587 112.313 13.404C112.793 13.6493 113.166 13.9907 113.433 14.428C113.699 14.8653 113.891 15.3453 114.009 15.868C114.137 16.38 114.201 16.94 114.201 17.548H107.897C107.918 18.5293 108.169 19.3293 108.649 19.948C109.129 20.556 109.822 20.86 110.729 20.86C111.987 20.86 112.793 20.2413 113.145 19.004H114.105C113.923 19.836 113.539 20.4973 112.953 20.988C112.377 21.468 111.635 21.708 110.729 21.708ZM107.913 16.764H113.161C113.139 15.9 112.915 15.2013 112.489 14.668C112.073 14.124 111.459 13.852 110.649 13.852C109.849 13.852 109.214 14.1187 108.745 14.652C108.286 15.1853 108.009 15.8893 107.913 16.764ZM115.75 21.5V13.228H116.742V14.476H116.774C117.371 13.5267 118.208 13.052 119.286 13.052C119.808 13.052 120.267 13.1853 120.662 13.452C121.056 13.708 121.334 14.076 121.494 14.556H121.526C122.102 13.5533 122.987 13.052 124.182 13.052C124.907 13.052 125.504 13.2813 125.974 13.74C126.443 14.188 126.678 14.8173 126.678 15.628V21.5H125.702V15.708C125.702 15.1107 125.542 14.6627 125.222 14.364C124.902 14.0547 124.48 13.9 123.958 13.9C123.328 13.9 122.795 14.1133 122.358 14.54C121.931 14.956 121.718 15.5213 121.718 16.236V21.5H120.726V15.708C120.726 15.1107 120.571 14.6627 120.262 14.364C119.963 14.0547 119.563 13.9 119.062 13.9C118.454 13.9 117.915 14.1293 117.446 14.588C116.976 15.036 116.742 15.5853 116.742 16.236V21.5H115.75ZM132.025 20.876C132.91 20.876 133.598 20.5453 134.089 19.884C134.579 19.2227 134.825 18.3853 134.825 17.372C134.825 16.3587 134.579 15.5213 134.089 14.86C133.598 14.1987 132.91 13.868 132.025 13.868C131.129 13.868 130.435 14.1987 129.945 14.86C129.454 15.5213 129.209 16.3587 129.209 17.372C129.209 18.3853 129.454 19.2227 129.945 19.884C130.435 20.5453 131.129 20.876 132.025 20.876ZM132.025 21.708C130.851 21.708 129.918 21.3027 129.225 20.492C128.531 19.6707 128.185 18.6307 128.185 17.372C128.185 16.1133 128.531 15.0787 129.225 14.268C129.918 13.4467 130.851 13.036 132.025 13.036C133.187 13.036 134.11 13.4467 134.793 14.268C135.486 15.0787 135.833 16.1133 135.833 17.372C135.833 18.6307 135.486 19.6707 134.793 20.492C134.11 21.3027 133.187 21.708 132.025 21.708Z" fill="url(#paint15_linear_574_2336)"/>
<defs>
<filter id="filter0_iiii_574_2336" x="0" y="0" width="32.0098" height="32.3563" filterUnits="userSpaceOnUse" color-interpolation-filters="sRGB">
<feFlood flood-opacity="0" result="BackgroundImageFix"/>
<feBlend mode="normal" in="SourceGraphic" in2="BackgroundImageFix" result="shape"/>
<feColorMatrix in="SourceAlpha" type="matrix" values="0 0 0 0 0 0 0 0 0 0 0 0 0 0 0 0 0 0 127 0" result="hardAlpha"/>
<feOffset/>
<feGaussianBlur stdDeviation="0.0593824"/>
<feComposite in2="hardAlpha" operator="arithmetic" k2="-1" k3="1"/>
<feColorMatrix type="matrix" values="0 0 0 0 0 0 0 0 0 0 0 0 0 0 0 0 0 0 0.17 0"/>
<feBlend mode="normal" in2="shape" result="effect1_innerShadow_574_2336"/>
<feColorMatrix in="SourceAlpha" type="matrix" values="0 0 0 0 0 0 0 0 0 0 0 0 0 0 0 0 0 0 127 0" result="hardAlpha"/>
<feOffset dy="0.23753"/>
<feGaussianBlur stdDeviation="0.118765"/>
<feComposite in2="hardAlpha" operator="arithmetic" k2="-1" k3="1"/>
<feColorMatrix type="matrix" values="0 0 0 0 0 0 0 0 0 0 0 0 0 0 0 0 0 0 0.15 0"/>
<feBlend mode="normal" in2="effect1_innerShadow_574_2336" result="effect2_innerShadow_574_2336"/>
<feColorMatrix in="SourceAlpha" type="matrix" values="0 0 0 0 0 0 0 0 0 0 0 0 0 0 0 0 0 0 127 0" result="hardAlpha"/>
<feOffset dy="0.475059"/>
<feGaussianBlur stdDeviation="0.118765"/>
<feComposite in2="hardAlpha" operator="arithmetic" k2="-1" k3="1"/>
<feColorMatrix type="matrix" values="0 0 0 0 0 0 0 0 0 0 0 0 0 0 0 0 0 0 0.09 0"/>
<feBlend mode="normal" in2="effect2_innerShadow_574_2336" result="effect3_innerShadow_574_2336"/>
<feColorMatrix in="SourceAlpha" type="matrix" values="0 0 0 0 0 0 0 0 0 0 0 0 0 0 0 0 0 0 127 0" result="hardAlpha"/>
<feOffset dy="0.831354"/>
<feGaussianBlur stdDeviation="0.178147"/>
<feComposite in2="hardAlpha" operator="arithmetic" k2="-1" k3="1"/>
<feColorMatrix type="matrix" values="0 0 0 0 0 0 0 0 0 0 0 0 0 0 0 0 0 0 0.03 0"/>
<feBlend mode="normal" in2="effect3_innerShadow_574_2336" result="effect4_innerShadow_574_2336"/>
</filter>
<filter id="filter1_ddddd_574_2336" x="7.35622" y="4.61463" width="19.7147" height="25.9078" filterUnits="userSpaceOnUse" color-interpolation-filters="sRGB">
<feFlood flood-opacity="0" result="BackgroundImageFix"/>
<feColorMatrix in="SourceAlpha" type="matrix" values="0 0 0 0 0 0 0 0 0 0 0 0 0 0 0 0 0 0 127 0" result="hardAlpha"/>
<feOffset dy="0.118765"/>
<feGaussianBlur stdDeviation="0.118765"/>
<feColorMatrix type="matrix" values="0 0 0 0 0.54902 0 0 0 0 0.54902 0 0 0 0 0.54902 0 0 0 0.48 0"/>
<feBlend mode="normal" in2="BackgroundImageFix" result="effect1_dropShadow_574_2336"/>
<feColorMatrix in="SourceAlpha" type="matrix" values="0 0 0 0 0 0 0 0 0 0 0 0 0 0 0 0 0 0 127 0" result="hardAlpha"/>
<feOffset dx="0.118765" dy="0.356295"/>
<feGaussianBlur stdDeviation="0.178147"/>
<feColorMatrix type="matrix" values="0 0 0 0 0.54902 0 0 0 0 0.54902 0 0 0 0 0.54902 0 0 0 0.42 0"/>
<feBlend mode="normal" in2="effect1_dropShadow_574_2336" result="effect2_dropShadow_574_2336"/>
<feColorMatrix in="SourceAlpha" type="matrix" values="0 0 0 0 0 0 0 0 0 0 0 0 0 0 0 0 0 0 127 0" result="hardAlpha"/>
<feOffset dx="0.356295" dy="0.831354"/>
<feGaussianBlur stdDeviation="0.296912"/>
<feColorMatrix type="matrix" values="0 0 0 0 0.54902 0 0 0 0 0.54902 0 0 0 0 0.54902 0 0 0 0.25 0"/>
<feBlend mode="normal" in2="effect2_dropShadow_574_2336" result="effect3_dropShadow_574_2336"/>
<feColorMatrix in="SourceAlpha" type="matrix" values="0 0 0 0 0 0 0 0 0 0 0 0 0 0 0 0 0 0 127 0" result="hardAlpha"/>
<feOffset dx="0.593824" dy="1.54394"/>
<feGaussianBlur stdDeviation="0.296912"/>
<feColorMatrix type="matrix" values="0 0 0 0 0.54902 0 0 0 0 0.54902 0 0 0 0 0.54902 0 0 0 0.07 0"/>
<feBlend mode="normal" in2="effect3_dropShadow_574_2336" result="effect4_dropShadow_574_2336"/>
<feColorMatrix in="SourceAlpha" type="matrix" values="0 0 0 0 0 0 0 0 0 0 0 0 0 0 0 0 0 0 127 0" result="hardAlpha"/>
<feOffset dx="0.950119" dy="2.3753"/>
<feGaussianBlur stdDeviation="0.356295"/>
<feColorMatrix type="matrix" values="0 0 0 0 0.54902 0 0 0 0 0.54902 0 0 0 0 0.54902 0 0 0 0.01 0"/>
<feBlend mode="normal" in2="effect4_dropShadow_574_2336" result="effect5_dropShadow_574_2336"/>
<feBlend mode="normal" in="SourceGraphic" in2="effect5_dropShadow_574_2336" result="shape"/>
</filter>
<filter id="filter2_i_574_2336" x="38.0098" y="5.97656" width="38.3603" height="20.3827" filterUnits="userSpaceOnUse" color-interpolation-filters="sRGB">
<feFlood flood-opacity="0" result="BackgroundImageFix"/>
<feBlend mode="normal" in="SourceGraphic" in2="BackgroundImageFix" result="shape"/>
<feColorMatrix in="SourceAlpha" type="matrix" values="0 0 0 0 0 0 0 0 0 0 0 0 0 0 0 0 0 0 127 0" result="hardAlpha"/>
<feOffset dx="0.950119" dy="0.356295"/>
<feGaussianBlur stdDeviation="0.475059"/>
<feComposite in2="hardAlpha" operator="arithmetic" k2="-1" k3="1"/>
<feColorMatrix type="matrix" values="0 0 0 0 0 0 0 0 0 0 0 0 0 0 0 0 0 0 0.07 0"/>
<feBlend mode="normal" in2="shape" result="effect1_innerShadow_574_2336"/>
</filter>
<linearGradient id="paint0_linear_574_2336" x1="0.426213" y1="0.348751" x2="10.9158" y2="20.3031" gradientUnits="userSpaceOnUse">
<stop stop-color="#FCFCFC"/>
<stop offset="1" stop-color="#E8E8E8"/>
</linearGradient>
<linearGradient id="paint1_linear_574_2336" x1="2.2056" y1="5.20404" x2="17.2648" y2="18.6622" gradientUnits="userSpaceOnUse">
<stop stop-color="#212121" stop-opacity="0.1"/>
<stop offset="1" stop-color="#282828" stop-opacity="0"/>
</linearGradient>
<linearGradient id="paint2_linear_574_2336" x1="3.54104" y1="3.47911" x2="11.9327" y2="19.4426" gradientUnits="userSpaceOnUse">
<stop stop-color="white"/>
<stop offset="1" stop-color="#F3F3F3"/>
</linearGradient>
<linearGradient id="paint3_linear_574_2336" x1="4.96456" y1="7.36333" x2="17.0119" y2="18.1299" gradientUnits="userSpaceOnUse">
<stop stop-color="#323232" stop-opacity="0.03"/>
<stop offset="1" stop-color="#080808" stop-opacity="0.06"/>
</linearGradient>
<linearGradient id="paint4_linear_574_2336" x1="6.65786" y1="6.60946" x2="12.9516" y2="18.5821" gradientUnits="userSpaceOnUse">
<stop stop-color="#FDFDFD"/>
<stop offset="1" stop-color="#FAFAFA"/>
</linearGradient>
<linearGradient id="paint5_linear_574_2336" x1="7.7255" y1="9.52262" x2="16.761" y2="17.5975" gradientUnits="userSpaceOnUse">
<stop stop-color="#131313" stop-opacity="0.11"/>
<stop offset="1" stop-color="#0F0F0F" stop-opacity="0.04"/>
</linearGradient>
<linearGradient id="paint6_linear_574_2336" x1="27.1405" y1="27.395" x2="3.65215" y2="1.59655" gradientUnits="userSpaceOnUse">
<stop stop-color="#111111"/>
<stop offset="1" stop-color="#363636"/>
</linearGradient>
<linearGradient id="paint7_linear_574_2336" x1="27.1405" y1="27.395" x2="3.65215" y2="1.59655" gradientUnits="userSpaceOnUse">
<stop stop-color="#111111"/>
<stop offset="1" stop-color="#363636"/>
</linearGradient>
<linearGradient id="paint8_linear_574_2336" x1="27.1405" y1="27.395" x2="3.65215" y2="1.59655" gradientUnits="userSpaceOnUse">
<stop stop-color="#111111"/>
<stop offset="1" stop-color="#363636"/>
</linearGradient>
<linearGradient id="paint9_linear_574_2336" x1="27.1405" y1="27.395" x2="3.65215" y2="1.59655" gradientUnits="userSpaceOnUse">
<stop stop-color="#111111"/>
<stop offset="1" stop-color="#363636"/>
</linearGradient>
<linearGradient id="paint10_linear_574_2336" x1="76.3247" y1="25.9587" x2="36.3409" y2="5.51484" gradientUnits="userSpaceOnUse">
<stop stop-color="#FBFBFB"/>
<stop offset="1" stop-color="white"/>
</linearGradient>
<linearGradient id="paint11_linear_574_2336" x1="76.3247" y1="25.9587" x2="36.3409" y2="5.51484" gradientUnits="userSpaceOnUse">
<stop stop-color="#FBFBFB"/>
<stop offset="1" stop-color="white"/>
</linearGradient>
<linearGradient id="paint12_linear_574_2336" x1="76.3247" y1="25.9587" x2="36.3409" y2="5.51484" gradientUnits="userSpaceOnUse">
<stop stop-color="#FBFBFB"/>
<stop offset="1" stop-color="white"/>
</linearGradient>
<linearGradient id="paint13_linear_574_2336" x1="76.3247" y1="25.9587" x2="36.3409" y2="5.51484" gradientUnits="userSpaceOnUse">
<stop stop-color="#FBFBFB"/>
<stop offset="1" stop-color="white"/>
</linearGradient>
<linearGradient id="paint14_linear_574_2336" x1="87.4219" y1="2.5" x2="134.602" y2="41.4075" gradientUnits="userSpaceOnUse">
<stop stop-color="#9F8BFF"/>
<stop offset="1" stop-color="#7053FF"/>
</linearGradient>
<linearGradient id="paint15_linear_574_2336" x1="95.4219" y1="6.5" x2="128.754" y2="34.5966" gradientUnits="userSpaceOnUse">
<stop stop-color="#9F8BFF"/>
<stop offset="1" stop-color="#7053FF"/>
</linearGradient>
</defs>
</svg>
