<svg width="346" height="162" viewBox="0 0 346 162" fill="none" xmlns="http://www.w3.org/2000/svg">
<g clip-path="url(#clip0_555_2874)">
<g opacity="0.8" filter="url(#filter0_f_555_2874)">
<path d="M88.9838 -155.401C94.4038 -163.554 105.504 -165.852 112.858 -159.389C124.635 -149.039 134.51 -136.64 141.979 -122.747C152.255 -103.631 157.657 -82.2761 157.709 -60.5735C157.76 -38.8709 152.459 -17.4906 142.273 1.67357C132.088 20.8378 117.334 37.1943 99.3175 49.2943C81.301 61.3944 60.5785 68.8645 38.9855 71.0428C17.3925 73.2212 -4.40455 70.0407 -24.4748 61.783C-44.545 53.5253 -62.269 40.4452 -76.0766 23.7015C-86.112 11.5323 -93.8536 -2.29921 -98.9794 -17.1166C-102.18 -26.369 -95.8534 -35.7751 -86.2557 -37.7078C-76.6579 -39.6406 -67.4591 -33.3302 -63.8059 -24.2469C-60.1237 -15.0917 -55.0461 -6.5224 -48.7234 1.14468C-38.6252 13.3901 -25.6629 22.9561 -10.9846 28.9954C3.69367 35.0346 19.6348 37.3607 35.4268 35.7675C51.2187 34.1744 66.3741 28.7112 79.5503 19.8619C92.7266 11.0125 103.517 -0.949732 110.966 -14.9654C118.415 -28.981 122.292 -44.6174 122.255 -60.4895C122.217 -76.3616 118.266 -91.9794 110.75 -105.96C106.045 -114.713 100.033 -122.655 92.9515 -129.527C85.9253 -136.345 83.5638 -147.247 88.9838 -155.401Z" fill="#D7FF01"/>
</g>
<g filter="url(#filter1_b_555_2874)">
<rect x="0.5" y="0.5" width="345" height="161" rx="11.5" stroke="url(#paint0_linear_555_2874)" stroke-opacity="0.3"/>
<path d="M61.308 69.184C59.3027 71.4027 56.636 72.512 53.308 72.512C49.98 72.512 47.3027 71.4027 45.276 69.184C43.2707 66.944 42.268 64.0853 42.268 60.608C42.268 57.1307 43.2707 54.272 45.276 52.032C47.3027 49.792 49.98 48.672 53.308 48.672C56.636 48.672 59.3027 49.792 61.308 52.032C63.3133 54.272 64.316 57.1307 64.316 60.608C64.316 64.0853 63.3133 66.944 61.308 69.184ZM48.636 66.432C49.7453 67.9467 51.3133 68.704 53.34 68.704C55.3667 68.704 56.9133 67.9573 57.98 66.464C59.0467 64.9493 59.58 62.9973 59.58 60.608C59.58 58.2187 59.0467 56.2667 57.98 54.752C56.9133 53.2373 55.3667 52.48 53.34 52.48C51.3133 52.48 49.7453 53.2373 48.636 54.752C47.548 56.2667 47.004 58.2187 47.004 60.608C47.004 62.976 47.548 64.9173 48.636 66.432ZM71.3977 55.584V57.824H71.4937C72.6244 56.032 74.2457 55.136 76.3577 55.136C78.0431 55.136 79.4084 55.712 80.4537 56.864C81.4991 57.9947 82.0217 59.4667 82.0217 61.28V72H77.6698V61.92C77.6698 61.024 77.4138 60.2987 76.9017 59.744C76.4111 59.1893 75.7177 58.912 74.8217 58.912C73.8617 58.912 73.0617 59.264 72.4217 59.968C71.8031 60.672 71.4937 61.5787 71.4937 62.688V72H67.1417V55.584H71.3977ZM93.0562 72.48C90.4109 72.48 88.3309 71.6693 86.8162 70.048C85.3016 68.4053 84.5442 66.3147 84.5442 63.776C84.5442 61.3227 85.3016 59.2747 86.8162 57.632C88.3309 55.968 90.2722 55.136 92.6402 55.136C95.2216 55.136 97.2162 56.032 98.6242 57.824C100.032 59.616 100.736 62.016 100.736 65.024H88.8322C89.0029 66.3253 89.4402 67.3387 90.1442 68.064C90.8482 68.768 91.8082 69.12 93.0242 69.12C94.6242 69.12 95.6802 68.448 96.1922 67.104H100.48C100.16 68.64 99.3496 69.92 98.0482 70.944C96.7469 71.968 95.0829 72.48 93.0562 72.48ZM92.7042 58.496C90.5922 58.496 89.3229 59.6693 88.8962 62.016H96.1922C96.1282 60.9707 95.7762 60.128 95.1362 59.488C94.4962 58.8267 93.6856 58.496 92.7042 58.496ZM113.661 55.584V57.824H113.757C114.888 56.032 116.509 55.136 118.621 55.136C120.307 55.136 121.672 55.712 122.717 56.864C123.763 57.9947 124.285 59.4667 124.285 61.28V72H119.933V61.92C119.933 61.024 119.677 60.2987 119.165 59.744C118.675 59.1893 117.981 58.912 117.085 58.912C116.125 58.912 115.325 59.264 114.685 59.968C114.067 60.672 113.757 61.5787 113.757 62.688V72H109.405V55.584H113.661ZM137.944 72C137.731 71.7227 137.56 71.1147 137.432 70.176H137.368C136.899 70.88 136.301 71.424 135.576 71.808C134.851 72.192 133.837 72.384 132.536 72.384C130.808 72.384 129.421 71.9467 128.376 71.072C127.331 70.1973 126.808 68.96 126.808 67.36C126.808 65.696 127.384 64.48 128.536 63.712C129.688 62.9227 131.309 62.3787 133.4 62.08C134.936 61.8667 135.981 61.6533 136.536 61.44C137.091 61.2053 137.368 60.8 137.368 60.224C137.368 59.6267 137.133 59.1573 136.664 58.816C136.195 58.4533 135.512 58.272 134.616 58.272C132.632 58.272 131.576 59.04 131.448 60.576H127.576C127.64 59.0187 128.269 57.728 129.464 56.704C130.659 55.68 132.387 55.168 134.648 55.168C139.256 55.168 141.56 57.184 141.56 61.216V69.568C141.56 70.8053 141.752 71.5627 142.136 71.84V72H137.944ZM133.592 69.344C134.787 69.344 135.725 69.0347 136.408 68.416C137.112 67.7973 137.464 67.0613 137.464 66.208V63.744C136.995 64.0213 135.981 64.3413 134.424 64.704C133.187 64.9813 132.312 65.3013 131.8 65.664C131.288 66.0053 131.032 66.5387 131.032 67.264C131.032 68.6507 131.885 69.344 133.592 69.344ZM144.967 72V55.584H149.159V57.792H149.255C150.3 56.0213 151.889 55.136 154.023 55.136C155.047 55.136 155.953 55.4027 156.743 55.936C157.553 56.448 158.161 57.1413 158.567 58.016H158.631C159.825 56.096 161.468 55.136 163.559 55.136C165.265 55.136 166.588 55.6587 167.527 56.704C168.487 57.728 168.967 59.1467 168.967 60.96V72H164.615V61.696C164.615 59.8187 163.772 58.88 162.087 58.88C161.169 58.88 160.444 59.2107 159.911 59.872C159.399 60.512 159.143 61.376 159.143 62.464V72H154.791V61.696C154.791 59.8187 153.948 58.88 152.263 58.88C151.388 58.88 150.673 59.2107 150.119 59.872C149.585 60.512 149.319 61.376 149.319 62.464V72H144.967ZM180.006 72.48C177.361 72.48 175.281 71.6693 173.766 70.048C172.252 68.4053 171.494 66.3147 171.494 63.776C171.494 61.3227 172.252 59.2747 173.766 57.632C175.281 55.968 177.222 55.136 179.59 55.136C182.172 55.136 184.166 56.032 185.574 57.824C186.982 59.616 187.686 62.016 187.686 65.024H175.782C175.953 66.3253 176.39 67.3387 177.094 68.064C177.798 68.768 178.758 69.12 179.974 69.12C181.574 69.12 182.63 68.448 183.142 67.104H187.43C187.11 68.64 186.3 69.92 184.998 70.944C183.697 71.968 182.033 72.48 180.006 72.48ZM179.654 58.496C177.542 58.496 176.273 59.6693 175.846 62.016H183.142C183.078 60.9707 182.726 60.128 182.086 59.488C181.446 58.8267 180.636 58.496 179.654 58.496ZM189.96 77.312V75.744C191.496 74.9547 192.264 73.7067 192.264 72H189.928V67.36H194.6V71.744C194.6 73.28 194.152 74.528 193.256 75.488C192.382 76.4693 191.283 77.0773 189.96 77.312ZM53.244 110C53.0307 109.723 52.86 109.115 52.732 108.176H52.668C52.1987 108.88 51.6013 109.424 50.876 109.808C50.1507 110.192 49.1373 110.384 47.836 110.384C46.108 110.384 44.7213 109.947 43.676 109.072C42.6307 108.197 42.108 106.96 42.108 105.36C42.108 103.696 42.684 102.48 43.836 101.712C44.988 100.923 46.6093 100.379 48.7 100.08C50.236 99.8667 51.2813 99.6533 51.836 99.44C52.3907 99.2053 52.668 98.8 52.668 98.224C52.668 97.6267 52.4333 97.1573 51.964 96.816C51.4947 96.4533 50.812 96.272 49.916 96.272C47.932 96.272 46.876 97.04 46.748 98.576H42.876C42.94 97.0187 43.5693 95.728 44.764 94.704C45.9587 93.68 47.6867 93.168 49.948 93.168C54.556 93.168 56.86 95.184 56.86 99.216V107.568C56.86 108.805 57.052 109.563 57.436 109.84V110H53.244ZM48.892 107.344C50.0867 107.344 51.0253 107.035 51.708 106.416C52.412 105.797 52.764 105.061 52.764 104.208V101.744C52.2947 102.021 51.2813 102.341 49.724 102.704C48.4867 102.981 47.612 103.301 47.1 103.664C46.588 104.005 46.332 104.539 46.332 105.264C46.332 106.651 47.1853 107.344 48.892 107.344ZM60.3307 110V87.12H64.6827V110H60.3307ZM68.252 110V87.12H72.604V110H68.252ZM81.1643 96.464V93.584H83.4363V88.464H87.6923V93.584H90.5083V96.464H87.6923V105.168C87.6923 106.256 88.2363 106.8 89.3243 106.8L90.6043 106.768V109.968C89.9429 110.011 89.0363 110.032 87.8843 110.032C86.6256 110.032 85.5696 109.733 84.7163 109.136C83.8629 108.517 83.4363 107.504 83.4363 106.096V96.464H81.1643ZM97.7413 87.12V95.728H97.8373C98.4559 94.832 99.1279 94.1813 99.8533 93.776C100.6 93.3493 101.517 93.136 102.605 93.136C104.291 93.136 105.656 93.712 106.701 94.864C107.747 95.9947 108.269 97.4667 108.269 99.28V110H103.917V99.92C103.917 99.024 103.661 98.2987 103.149 97.744C102.659 97.1893 101.965 96.912 101.069 96.912C100.109 96.912 99.3093 97.264 98.6693 97.968C98.0506 98.672 97.7413 99.5787 97.7413 100.688V110H93.3893V87.12H97.7413ZM111.592 110V93.584H115.944V110H111.592ZM111.592 91.024V87.12H115.944V91.024H111.592ZM123.644 93.584V95.824H123.74C124.871 94.032 126.492 93.136 128.604 93.136C130.289 93.136 131.655 93.712 132.7 94.864C133.745 95.9947 134.268 97.4667 134.268 99.28V110H129.916V99.92C129.916 99.024 129.66 98.2987 129.148 97.744C128.657 97.1893 127.964 96.912 127.068 96.912C126.108 96.912 125.308 97.264 124.668 97.968C124.049 98.672 123.74 99.5787 123.74 100.688V110H119.388V93.584H123.644ZM144.823 115.6C142.604 115.6 140.823 115.152 139.479 114.256C138.156 113.36 137.377 112.101 137.143 110.48H141.463C141.889 111.696 142.988 112.304 144.759 112.304C147.191 112.304 148.407 111.163 148.407 108.88V107.088H148.311C147.18 108.368 145.751 109.008 144.023 109.008C142.081 109.008 140.385 108.293 138.935 106.864C137.505 105.435 136.791 103.536 136.791 101.168C136.791 98.736 137.452 96.7947 138.775 95.344C140.097 93.872 141.804 93.136 143.895 93.136C145.879 93.136 147.393 93.8613 148.439 95.312H148.503V93.584H152.695V108.752C152.695 110.885 152.044 112.549 150.743 113.744C149.42 114.981 147.447 115.6 144.823 115.6ZM144.759 105.52C146.06 105.52 147.031 105.104 147.671 104.272C148.311 103.44 148.631 102.373 148.631 101.072C148.631 99.792 148.289 98.736 147.607 97.904C146.945 97.0507 145.985 96.624 144.727 96.624C143.617 96.624 142.721 97.0293 142.039 97.84C141.377 98.6507 141.047 99.7387 141.047 101.104C141.047 102.491 141.377 103.579 142.039 104.368C142.721 105.136 143.628 105.52 144.759 105.52ZM162.793 110.48C160.446 110.48 158.611 109.968 157.289 108.944C155.966 107.899 155.241 106.48 155.113 104.688H159.145C159.422 106.501 160.617 107.408 162.729 107.408C163.689 107.408 164.425 107.237 164.937 106.896C165.47 106.555 165.737 106.096 165.737 105.52C165.737 105.307 165.694 105.115 165.609 104.944C165.545 104.773 165.417 104.624 165.225 104.496C165.054 104.347 164.894 104.229 164.745 104.144C164.617 104.059 164.382 103.973 164.041 103.888C163.699 103.803 163.433 103.739 163.241 103.696C163.07 103.653 162.761 103.6 162.313 103.536C161.886 103.451 161.587 103.387 161.417 103.344C160.521 103.173 159.785 103.003 159.209 102.832C158.654 102.64 158.067 102.373 157.449 102.032C156.83 101.669 156.361 101.189 156.041 100.592C155.742 99.9733 155.593 99.2373 155.593 98.384C155.593 96.6773 156.211 95.376 157.449 94.48C158.707 93.584 160.318 93.136 162.281 93.136C164.393 93.136 166.046 93.6267 167.241 94.608C168.457 95.568 169.15 96.8907 169.321 98.576H165.385C165.214 96.976 164.158 96.176 162.217 96.176C161.342 96.176 160.649 96.336 160.137 96.656C159.646 96.976 159.401 97.424 159.401 98C159.401 98.192 159.433 98.3733 159.497 98.544C159.582 98.6933 159.71 98.832 159.881 98.96C160.073 99.0667 160.254 99.1627 160.425 99.248C160.595 99.312 160.841 99.3867 161.161 99.472C161.481 99.536 161.758 99.6 161.993 99.664C162.227 99.7067 162.547 99.7707 162.953 99.856C163.358 99.92 163.678 99.9733 163.913 100.016C164.595 100.165 165.15 100.304 165.577 100.432C166.025 100.539 166.537 100.731 167.113 101.008C167.689 101.264 168.137 101.563 168.457 101.904C168.798 102.224 169.086 102.672 169.321 103.248C169.577 103.803 169.705 104.453 169.705 105.2C169.705 106.821 169.065 108.112 167.785 109.072C166.526 110.011 164.862 110.48 162.793 110.48Z" fill="white" fill-opacity="0.85"/>
<path d="M183.731 110L177.075 87.12H181.811L184.787 98.48L185.779 103.472H185.843C186.227 101.573 186.579 99.952 186.899 98.608L189.395 87.12H193.875L196.371 98.576L197.427 103.472H197.491C197.939 101.445 198.312 99.7707 198.611 98.448L201.491 87.12H206.067L199.539 110H195.219L192.435 97.744L191.635 93.68H191.571C191.336 95.28 191.091 96.6347 190.835 97.744L188.019 110H183.731Z" fill="url(#paint1_linear_555_2874)"/>
<path d="M214.237 110.48C211.592 110.48 209.512 109.669 207.997 108.048C206.483 106.405 205.725 104.315 205.725 101.776C205.725 99.3227 206.483 97.2747 207.997 95.632C209.512 93.968 211.453 93.136 213.821 93.136C216.403 93.136 218.397 94.032 219.805 95.824C221.213 97.616 221.917 100.016 221.917 103.024H210.013C210.184 104.325 210.621 105.339 211.325 106.064C212.029 106.768 212.989 107.12 214.205 107.12C215.805 107.12 216.861 106.448 217.373 105.104H221.661C221.341 106.64 220.531 107.92 219.229 108.944C217.928 109.968 216.264 110.48 214.237 110.48ZM213.885 96.496C211.773 96.496 210.504 97.6693 210.077 100.016H217.373C217.309 98.9707 216.957 98.128 216.317 97.488C215.677 96.8267 214.867 96.496 213.885 96.496ZM233.724 110.48C231.505 110.48 229.873 109.637 228.828 107.952H228.764V110H224.572V87.12H228.924V95.568H229.02C230.065 93.9467 231.59 93.136 233.596 93.136C235.665 93.136 237.361 93.9467 238.684 95.568C240.006 97.168 240.668 99.248 240.668 101.808C240.668 104.453 240.028 106.565 238.748 108.144C237.468 109.701 235.793 110.48 233.724 110.48ZM232.764 106.832C233.873 106.832 234.726 106.395 235.324 105.52C235.942 104.645 236.252 103.408 236.252 101.808C236.252 100.229 235.932 98.9813 235.292 98.064C234.673 97.1253 233.777 96.656 232.604 96.656C230.086 96.656 228.828 98.4053 228.828 101.904C228.828 103.419 229.18 104.624 229.884 105.52C230.588 106.395 231.548 106.832 232.764 106.832ZM251.049 110.48C248.275 110.48 246.153 109.776 244.681 108.368C243.209 106.939 242.451 104.997 242.409 102.544H246.569C246.739 105.509 248.179 106.992 250.889 106.992C252.105 106.992 253.054 106.683 253.737 106.064C254.419 105.424 254.761 104.549 254.761 103.44C254.761 102.373 254.419 101.541 253.737 100.944C253.054 100.347 252.051 100.048 250.729 100.048H249.385V96.752H250.633C251.699 96.752 252.553 96.496 253.193 95.984C253.854 95.472 254.185 94.7573 254.185 93.84C254.185 92.9653 253.907 92.272 253.353 91.76C252.798 91.2267 252.041 90.96 251.081 90.96C249.886 90.96 248.958 91.312 248.297 92.016C247.657 92.72 247.315 93.6693 247.273 94.864H243.113C243.198 92.6453 243.923 90.8853 245.289 89.584C246.654 88.2827 248.585 87.632 251.081 87.632C253.385 87.632 255.209 88.1653 256.553 89.232C257.918 90.2987 258.601 91.7387 258.601 93.552C258.601 95.8133 257.353 97.3493 254.857 98.16V98.224C257.822 98.9493 259.305 100.784 259.305 103.728C259.305 105.904 258.526 107.579 256.969 108.752C255.411 109.904 253.438 110.48 251.049 110.48Z" fill="url(#paint2_linear_555_2874)"/>
</g>
</g>
<defs>
<filter id="filter0_f_555_2874" x="-139.818" y="-203.126" width="337.527" height="314.835" filterUnits="userSpaceOnUse" color-interpolation-filters="sRGB">
<feFlood flood-opacity="0" result="BackgroundImageFix"/>
<feBlend mode="normal" in="SourceGraphic" in2="BackgroundImageFix" result="shape"/>
<feGaussianBlur stdDeviation="20" result="effect1_foregroundBlur_555_2874"/>
</filter>
<filter id="filter1_b_555_2874" x="-100" y="-100" width="546" height="362" filterUnits="userSpaceOnUse" color-interpolation-filters="sRGB">
<feFlood flood-opacity="0" result="BackgroundImageFix"/>
<feGaussianBlur in="BackgroundImageFix" stdDeviation="50"/>
<feComposite in2="SourceAlpha" operator="in" result="effect1_backgroundBlur_555_2874"/>
<feBlend mode="normal" in="SourceGraphic" in2="effect1_backgroundBlur_555_2874" result="shape"/>
</filter>
<linearGradient id="paint0_linear_555_2874" x1="-2.07552e-07" y1="5.94964" x2="327.284" y2="187.855" gradientUnits="userSpaceOnUse">
<stop stop-color="white"/>
<stop offset="0.325893" stop-color="white" stop-opacity="0.256139"/>
<stop offset="0.695684" stop-color="white" stop-opacity="0.735087"/>
<stop offset="1" stop-color="white" stop-opacity="0.07"/>
</linearGradient>
<linearGradient id="paint1_linear_555_2874" x1="21" y1="65" x2="270.32" y2="313.606" gradientUnits="userSpaceOnUse">
<stop stop-color="#39A0FF"/>
<stop offset="0.562204" stop-color="#D7FF01"/>
</linearGradient>
<linearGradient id="paint2_linear_555_2874" x1="8" y1="43.783" x2="201.324" y2="174.101" gradientUnits="userSpaceOnUse">
<stop stop-color="#39A0FF"/>
<stop offset="0.665" stop-color="#D7FF01"/>
</linearGradient>
<clipPath id="clip0_555_2874">
<rect width="346" height="162" rx="12" fill="white"/>
</clipPath>
</defs>
</svg>
