<svg width="31" height="47" viewBox="0 0 31 47" fill="none" xmlns="http://www.w3.org/2000/svg">
<g id="optimism-ethereum-op-logo 1">
<path id="Vector" d="M2.68322 30.5796C1.42911 30.9747 0.309465 31.0035 -0.675723 30.6662C-1.65515 30.3179 -2.32117 29.584 -2.66849 28.4814C-2.74273 28.2457 -2.80497 27.96 -2.86052 27.6074C-2.96447 26.8075 -3.05722 25.8375 -3.14143 24.689C-3.33805 21.5683 -1.94238 19.5373 1.03717 18.5987C1.84519 18.3442 2.61987 18.2482 3.34704 18.3245C4.06891 18.3839 4.70118 18.6288 5.2412 19.0508C5.77857 19.4644 6.16259 20.0374 6.39326 20.7696C6.46219 20.9885 6.52443 21.2742 6.57998 21.6268C6.71436 22.6114 6.81818 23.5872 6.86931 24.5425C6.95234 26.0984 6.6631 27.3831 5.97945 28.3848C5.30156 29.3755 4.19824 30.1024 2.68322 30.5796ZM2.19462 28.2355C2.7838 28.0499 3.22471 27.7167 3.52843 27.2417C3.84057 26.7641 3.97654 26.1384 3.92528 25.3589C3.85652 24.2888 3.77125 23.3719 3.66419 22.5915C3.63734 22.3594 3.591 22.1242 3.51677 21.8885C3.21452 20.929 2.5668 20.6057 1.5652 20.9212C0.976026 21.1068 0.526695 21.4426 0.214558 21.9203C-0.0891628 22.3953 -0.216719 23.0183 -0.16546 23.7978C-0.136337 24.5658 -0.0510725 25.4827 0.0787998 26.5705C0.102998 26.7942 0.146681 27.021 0.220918 27.2566C0.520052 28.2356 1.1846 28.5537 2.19462 28.2355Z" fill="white"/>
<path id="Vector_2" d="M9.5541 28.248C9.43627 28.2851 9.34149 28.2779 9.2503 28.2234C9.17328 28.1551 9.12729 28.0678 9.10965 27.9531L8.05502 16.9979C8.03473 16.8748 8.06449 16.7636 8.14163 16.6561C8.21035 16.5512 8.30075 16.4857 8.41017 16.4512L12.6102 15.1282C13.7801 14.7597 14.7912 14.7095 15.6494 14.9665C16.5186 15.2293 17.1006 15.8139 17.3896 16.7314C17.4717 16.9923 17.5256 17.2806 17.5568 17.5854C17.6777 18.8796 17.4284 19.9388 16.8034 20.7741C16.1951 21.6041 15.1995 22.2323 13.8191 22.6671L11.6897 23.3378L12.0555 27.0252C12.0674 27.151 12.0461 27.2594 11.9689 27.367C11.9002 27.4719 11.8098 27.5374 11.7004 27.5719L9.5541 28.248ZM13.2419 20.4526C13.688 20.3121 14.0296 20.075 14.281 19.7275C14.5408 19.3774 14.6509 18.9633 14.6171 18.4744C14.5951 18.287 14.5616 18.1218 14.5192 17.9871C14.4237 17.6841 14.2569 17.4776 14.0298 17.3734C13.8 17.2607 13.4621 17.2746 13.0328 17.4098L11.139 18.0064L11.4323 21.0227L13.2419 20.4526Z" fill="white"/>
</g>
</svg>
