<svg width="145" height="181" viewBox="0 0 145 181" fill="none" xmlns="http://www.w3.org/2000/svg">
<g opacity="0.8" filter="url(#filter0_f_555_2883)">
<path d="M392.172 6.96591C402.92 8.4342 411.343 17.3681 410.345 28.1695C408.604 46.9984 402.631 64.7123 392.66 80.3837C379.45 101.147 359.631 117.684 334.96 128.53C310.288 139.376 281.525 144.196 251.218 142.564C220.912 140.932 189.997 132.897 161.212 119.172C132.427 105.447 106.661 86.4552 86.1962 63.8786C65.7312 41.3021 51.1989 15.8377 43.8867 -10.2588C36.5744 -36.3553 36.7078 -62.2784 44.2751 -85.732C49.964 -103.364 59.7221 -119.19 72.9937 -132.45C80.714 -140.163 93.0531 -139.297 101.016 -131.834L104.399 -128.662C114.698 -119.009 113.41 -102.411 105.055 -91.0341C99.6876 -83.7248 95.5427 -75.6487 92.7442 -66.9753C87.2099 -49.8227 87.1123 -30.8639 92.4601 -11.7784C97.8079 7.30721 108.436 25.9305 123.403 42.4417C138.37 58.953 157.214 72.8427 178.265 82.8805C199.317 92.9182 221.927 98.7942 244.091 99.9879C266.256 101.182 287.292 97.6562 305.335 89.724C323.379 81.7918 337.873 69.6975 347.534 54.5126C352.398 46.8673 355.962 38.5573 358.173 29.7839C361.641 16.0276 373.751 4.44922 387.807 6.3695L392.172 6.96591Z" fill="#D7FF01"/>
</g>
<defs>
<filter id="filter0_f_555_2883" x="0.82523" y="-175.521" width="447.275" height="356.07" filterUnits="userSpaceOnUse" color-interpolation-filters="sRGB">
<feFlood flood-opacity="0" result="BackgroundImageFix"/>
<feBlend mode="normal" in="SourceGraphic" in2="BackgroundImageFix" result="shape"/>
<feGaussianBlur stdDeviation="18.8374" result="effect1_foregroundBlur_555_2883"/>
</filter>
</defs>
</svg>
