<svg width="37" height="37" viewBox="0 0 37 37" fill="none" xmlns="http://www.w3.org/2000/svg">
<g filter="url(#filter0_b_574_5155)">
<rect x="0.359375" y="0.243164" width="35.9793" height="35.9793" rx="17.9897" fill="url(#paint0_linear_574_5155)"/>
<path d="M23.2078 14.8292C22.8556 14.6217 22.3978 14.6217 22.0104 14.8292L19.2631 16.4207L17.3965 17.4586L14.6493 19.05C14.2971 19.2575 13.8392 19.2575 13.4518 19.05L11.2682 17.8045C10.916 17.5969 10.6694 17.2164 10.6694 16.8012V14.3449C10.6694 13.9297 10.8807 13.5492 11.2682 13.3416L13.4166 12.1307C13.7688 11.9231 14.2267 11.9231 14.6141 12.1307L16.7625 13.3416C17.1147 13.5492 17.3613 13.9297 17.3613 14.3449V15.9363L19.2279 14.8638V13.2724C19.2279 12.8572 19.0167 12.4767 18.6292 12.2691L14.6493 9.98576C14.2971 9.77818 13.8392 9.77818 13.4518 9.98576L9.40148 12.2691C9.01406 12.4767 8.80273 12.8572 8.80273 13.2724V17.8737C8.80273 18.2888 9.01406 18.6694 9.40148 18.877L13.4518 21.1603C13.804 21.3679 14.2619 21.3679 14.6493 21.1603L17.3965 19.6035L19.2631 18.531L22.0104 16.9742C22.3626 16.7666 22.8204 16.7666 23.2078 16.9742L25.3563 18.1851C25.7084 18.3926 25.955 18.7732 25.955 19.1884V21.6447C25.955 22.0599 25.7437 22.4404 25.3563 22.648L23.2078 23.8934C22.8556 24.101 22.3978 24.101 22.0104 23.8934L19.8619 22.6826C19.5097 22.475 19.2631 22.0944 19.2631 21.6793V20.0879L17.3965 21.1603V22.7517C17.3965 23.1669 17.6078 23.5475 17.9952 23.755L22.0456 26.0384C22.3978 26.246 22.8556 26.246 23.243 26.0384L27.2934 23.755C27.6456 23.5475 27.8922 23.1669 27.8922 22.7517V18.1504C27.8922 17.7353 27.6808 17.3548 27.2934 17.1472L23.2078 14.8292Z" fill="white"/>
</g>
<defs>
<filter id="filter0_b_574_5155" x="-4.13804" y="-4.25425" width="44.9733" height="44.9743" filterUnits="userSpaceOnUse" color-interpolation-filters="sRGB">
<feFlood flood-opacity="0" result="BackgroundImageFix"/>
<feGaussianBlur in="BackgroundImageFix" stdDeviation="2.24871"/>
<feComposite in2="SourceAlpha" operator="in" result="effect1_backgroundBlur_574_5155"/>
<feBlend mode="normal" in="SourceGraphic" in2="effect1_backgroundBlur_574_5155" result="shape"/>
</filter>
<linearGradient id="paint0_linear_574_5155" x1="0.359375" y1="0.243164" x2="36.3387" y2="36.2225" gradientUnits="userSpaceOnUse">
<stop stop-color="#101010" stop-opacity="0.7"/>
<stop offset="1" stop-color="#101010" stop-opacity="0.4"/>
</linearGradient>
</defs>
</svg>
