<svg width="30" height="29" viewBox="0 0 30 29" fill="none" xmlns="http://www.w3.org/2000/svg">
<g id="Polygon">
<path id="Vector" d="M20.517 10.6202C20.1225 10.3876 19.6096 10.3876 19.1757 10.6202L16.0982 12.4029L14.0072 13.5655L10.9299 15.3482C10.5353 15.5807 10.0224 15.5807 9.58846 15.3482L7.14235 13.953C6.74782 13.7205 6.47165 13.2942 6.47165 12.8292V10.0776C6.47165 9.61255 6.70837 9.18625 7.14235 8.95373L9.549 7.59733C9.94354 7.36481 10.4564 7.36481 10.8904 7.59733L13.2971 8.95373C13.6916 9.18625 13.9678 9.61255 13.9678 10.0776V11.8603L16.0588 10.6589V8.87622C16.0588 8.41117 15.8221 7.98487 15.3881 7.75234L10.9299 5.19457C10.5353 4.96204 10.0224 4.96204 9.58846 5.19457L5.05132 7.75234C4.61734 7.98487 4.38062 8.41117 4.38062 8.87622V14.0305C4.38062 14.4956 4.61734 14.9219 5.05132 15.1544L9.58846 17.7122C9.98299 17.9447 10.4959 17.9447 10.9299 17.7122L14.0072 15.9682L16.0982 14.7669L19.1757 13.0229C19.5702 12.7904 20.083 12.7904 20.517 13.0229L22.9237 14.3793C23.3182 14.6118 23.5944 15.0382 23.5944 15.5032V18.2547C23.5944 18.7198 23.3577 19.1461 22.9237 19.3786L20.517 20.7738C20.1225 21.0063 19.6096 21.0063 19.1757 20.7738L16.769 19.4174C16.3744 19.1849 16.0982 18.7585 16.0982 18.2935V16.5108L14.0072 17.7122V19.4949C14.0072 19.9599 14.244 20.3862 14.6779 20.6188L19.2151 23.1765C19.6096 23.409 20.1225 23.409 20.5565 23.1765L25.0937 20.6188C25.4882 20.3862 25.7644 19.9599 25.7644 19.4949V14.3405C25.7644 13.8755 25.5276 13.4493 25.0937 13.2167L20.517 10.6202Z" fill="white"/>
</g>
</svg>
