<svg width="34" height="40" viewBox="0 0 34 40" fill="none" xmlns="http://www.w3.org/2000/svg">
<path d="M26.1927 10.4324C27.274 10.8861 27.274 12.4181 26.1927 12.8718L21.9889 14.6357C21.6693 14.7698 21.4151 15.024 21.281 15.3436L19.5171 19.5475C19.0635 20.6287 17.5314 20.6287 17.0777 19.5475L15.3139 15.3436C15.1798 15.024 14.9256 14.7698 14.606 14.6357L10.4021 12.8718C9.32089 12.4181 9.32089 10.8861 10.4021 10.4324L14.606 8.66853C14.9256 8.53442 15.1798 8.28022 15.3139 7.9606L17.0777 3.75677C17.5314 2.67551 19.0635 2.67551 19.5171 3.75678L21.281 7.9606C21.4151 8.28022 21.6693 8.53442 21.9889 8.66853L26.1927 10.4324Z" fill="white"/>
<path d="M18.6976 27.628C19.7789 28.0817 19.7789 29.6137 18.6976 30.0674L14.4938 31.8313C14.1742 31.9654 13.92 32.2196 13.7859 32.5393L12.022 36.7431C11.5683 37.8243 10.0363 37.8243 9.58263 36.7431L7.81877 32.5393C7.68466 32.2196 7.43046 31.9654 7.11084 31.8313L2.90703 30.0674C1.82577 29.6137 1.82577 28.0817 2.90703 27.628L7.11084 25.8641C7.43046 25.73 7.68466 25.4758 7.81877 25.1562L9.58263 20.9524C10.0363 19.8711 11.5683 19.8711 12.022 20.9524L13.7859 25.1562C13.92 25.4758 14.1742 25.73 14.4938 25.8641L18.6976 27.628Z" fill="white"/>
<path d="M21.9282 16.1022C22.3818 15.0209 23.9139 15.0209 24.3676 16.1022L26.1314 20.306C26.2655 20.6256 26.5197 20.8798 26.8394 21.0139L31.0432 22.7778C32.1244 23.2315 32.1244 24.7635 31.0432 25.2172L26.8394 26.9811C26.5197 27.1152 26.2655 27.3694 26.1314 27.689L24.3676 31.8929C23.9139 32.9741 22.3818 32.9741 21.9282 31.8929L20.1643 27.689C20.0302 27.3694 19.776 27.1152 19.4564 26.9811L15.2526 25.2172C14.1713 24.7635 14.1713 23.2315 15.2526 22.7778L19.4564 21.0139C19.776 20.8798 20.0302 20.6256 20.1643 20.306L21.9282 16.1022Z" fill="white"/>
</svg>
