<svg width="348" height="129" viewBox="0 0 348 129" fill="none" xmlns="http://www.w3.org/2000/svg">
<g filter="url(#filter0_b_565_2233)">
<rect x="1" y="1" width="346" height="127" rx="12" fill="url(#paint0_radial_565_2233)" fill-opacity="0.7"/>
<rect x="0.65" y="0.65" width="346.7" height="127.7" rx="12.35" stroke="url(#paint1_linear_565_2233)" stroke-opacity="0.3" stroke-width="0.7"/>
<g clip-path="url(#clip0_565_2233)">
<path d="M58.2756 58.2832L50.1589 43.3332C49.944 42.9384 49.6266 42.6088 49.2402 42.3792C48.8538 42.1495 48.4126 42.0283 47.9631 42.0283C47.5135 42.0283 47.0724 42.1495 46.6859 42.3792C46.2995 42.6088 45.9821 42.9384 45.7672 43.3332L37.6422 58.2832C37.4296 58.6649 37.3207 59.0957 37.3264 59.5326C37.3321 59.9695 37.4522 60.3973 37.6748 60.7734C37.8974 61.1494 38.2146 61.4605 38.5949 61.6757C38.9752 61.8909 39.4053 62.0027 39.8422 61.9999H56.0756C56.5089 62.0003 56.935 61.888 57.3119 61.6741C57.6888 61.4602 58.0036 61.152 58.2254 60.7797C58.4473 60.4074 58.5686 59.9839 58.5773 59.5506C58.5861 59.1173 58.4821 58.6892 58.2756 58.3082V58.2832ZM46.7172 47.6165C46.7172 47.285 46.8489 46.9671 47.0833 46.7326C47.3178 46.4982 47.6357 46.3665 47.9672 46.3665C48.2988 46.3665 48.6167 46.4982 48.8511 46.7326C49.0855 46.9671 49.2172 47.285 49.2172 47.6165V53.3582C49.2172 53.6897 49.0855 54.0077 48.8511 54.2421C48.6167 54.4765 48.2988 54.6082 47.9672 54.6082C47.6357 54.6082 47.3178 54.4765 47.0833 54.2421C46.8489 54.0077 46.7172 53.6897 46.7172 53.3582V47.6165ZM48.0006 58.8749C47.7171 58.8749 47.44 58.7908 47.2042 58.6333C46.9685 58.4758 46.7848 58.252 46.6763 57.99C46.5679 57.7281 46.5395 57.4399 46.5948 57.1619C46.6501 56.8839 46.7866 56.6285 46.987 56.428C47.1875 56.2276 47.4429 56.091 47.7209 56.0357C47.999 55.9804 48.2872 56.0088 48.5491 56.1173C48.811 56.2258 49.0348 56.4095 49.1923 56.6452C49.3498 56.8809 49.4339 57.158 49.4339 57.4415C49.4339 57.8217 49.2829 58.1862 49.0141 58.4551C48.7453 58.7239 48.3807 58.8749 48.0006 58.8749Z" fill="#FBBC05" fill-opacity="0.24"/>
</g>
<path d="M77.352 37.824V36.56H86.408V37.824H82.6V48H81.16V37.824H77.352ZM89.2616 36.56V40.816H89.2936C89.9336 39.9627 90.8083 39.536 91.9176 39.536C92.7923 39.536 93.475 39.7653 93.9656 40.224C94.4563 40.6827 94.7016 41.3387 94.7016 42.192V48H93.4056V42.304C93.4056 41.7707 93.2403 41.36 92.9096 41.072C92.579 40.7733 92.1203 40.624 91.5336 40.624C90.8723 40.624 90.3283 40.8373 89.9016 41.264C89.475 41.6907 89.2616 42.24 89.2616 42.912V48H87.9656V36.56H89.2616ZM96.7387 48V39.728H98.0347V48H96.7387ZM96.7387 38.16V36.56H98.0347V38.16H96.7387ZM103.257 48.24C102.127 48.24 101.247 47.9893 100.617 47.488C99.9986 46.976 99.6572 46.2507 99.5932 45.312H100.921C101.071 46.5387 101.86 47.152 103.289 47.152C103.94 47.152 104.42 47.0293 104.729 46.784C105.049 46.528 105.209 46.1973 105.209 45.792C105.209 45.3547 105.055 45.04 104.745 44.848C104.436 44.656 103.871 44.4747 103.049 44.304C102.708 44.2293 102.436 44.1707 102.233 44.128C102.041 44.0747 101.807 44.0053 101.529 43.92C101.252 43.824 101.033 43.7227 100.873 43.616C100.724 43.4987 100.569 43.36 100.409 43.2C100.249 43.04 100.132 42.8427 100.057 42.608C99.9932 42.3733 99.9612 42.112 99.9612 41.824C99.9612 41.12 100.217 40.5653 100.729 40.16C101.252 39.7547 101.988 39.552 102.937 39.552C104.9 39.552 105.983 40.416 106.185 42.144H104.857C104.793 41.6 104.607 41.2053 104.297 40.96C103.988 40.704 103.524 40.576 102.905 40.576C102.34 40.576 101.919 40.688 101.641 40.912C101.375 41.1253 101.241 41.408 101.241 41.76C101.241 42.1653 101.401 42.4533 101.721 42.624C102.041 42.784 102.623 42.9493 103.465 43.12C103.977 43.2267 104.377 43.328 104.665 43.424C104.964 43.5093 105.273 43.648 105.593 43.84C105.913 44.0213 106.148 44.2667 106.297 44.576C106.447 44.8853 106.521 45.2693 106.521 45.728C106.521 46.5387 106.223 47.1627 105.625 47.6C105.028 48.0267 104.239 48.24 103.257 48.24ZM114.149 48.24C113.018 48.24 112.122 47.8507 111.461 47.072C110.81 46.2827 110.485 45.2213 110.485 43.888C110.485 42.544 110.826 41.4827 111.509 40.704C112.191 39.9253 113.061 39.536 114.117 39.536C115.237 39.536 116.101 39.9893 116.709 40.896H116.741V36.56H118.037V48H116.741V46.992H116.709C116.058 47.824 115.205 48.24 114.149 48.24ZM114.197 47.152C115.082 47.152 115.738 46.8587 116.165 46.272C116.602 45.6853 116.821 44.896 116.821 43.904C116.821 42.9227 116.586 42.1333 116.117 41.536C115.658 40.9387 115.013 40.64 114.181 40.64C113.423 40.64 112.837 40.944 112.421 41.552C112.015 42.1493 111.813 42.9333 111.813 43.904C111.813 44.8747 112.015 45.6587 112.421 46.256C112.837 46.8533 113.429 47.152 114.197 47.152ZM123.648 48.224C122.422 48.224 121.446 47.8133 120.72 46.992C120.006 46.16 119.648 45.12 119.648 43.872C119.648 42.6453 120.011 41.616 120.736 40.784C121.472 39.9413 122.416 39.52 123.568 39.52C124.784 39.52 125.723 39.9467 126.384 40.8C127.046 41.6427 127.376 42.768 127.376 44.176H120.976C121.03 45.0507 121.286 45.7653 121.744 46.32C122.214 46.864 122.848 47.136 123.648 47.136C124.886 47.136 125.648 46.5707 125.936 45.44H127.2C127.008 46.3253 126.603 47.0133 125.984 47.504C125.366 47.984 124.587 48.224 123.648 48.224ZM125.296 41.248C124.88 40.7787 124.304 40.544 123.568 40.544C122.832 40.544 122.246 40.7893 121.808 41.28C121.382 41.7707 121.115 42.4107 121.008 43.2H125.984C125.942 42.368 125.712 41.7173 125.296 41.248ZM128.964 48V39.728H130.26V40.912H130.292C130.558 40.496 130.905 40.1653 131.332 39.92C131.758 39.664 132.222 39.536 132.724 39.536C133.801 39.536 134.521 40.0267 134.884 41.008H134.916C135.172 40.5493 135.529 40.192 135.988 39.936C136.446 39.6693 136.932 39.536 137.444 39.536C138.201 39.536 138.809 39.7707 139.268 40.24C139.726 40.6987 139.956 41.3493 139.956 42.192V48H138.66V42.256C138.66 41.7547 138.51 41.36 138.212 41.072C137.924 40.7733 137.566 40.624 137.14 40.624C136.596 40.624 136.121 40.8373 135.716 41.264C135.31 41.6907 135.108 42.2187 135.108 42.848V48H133.812V42.256C133.812 41.7547 133.678 41.36 133.412 41.072C133.156 40.7733 132.814 40.624 132.388 40.624C131.854 40.624 131.364 40.8427 130.916 41.28C130.478 41.7067 130.26 42.2293 130.26 42.848V48H128.964ZM148.419 46.976C147.694 47.808 146.728 48.224 145.523 48.224C144.318 48.224 143.347 47.808 142.611 46.976C141.886 46.144 141.523 45.1093 141.523 43.872C141.523 42.6347 141.886 41.6 142.611 40.768C143.347 39.936 144.318 39.52 145.523 39.52C146.728 39.52 147.694 39.936 148.419 40.768C149.144 41.6 149.507 42.6347 149.507 43.872C149.507 45.1093 149.144 46.144 148.419 46.976ZM143.539 46.224C144.008 46.832 144.67 47.136 145.523 47.136C146.376 47.136 147.032 46.832 147.491 46.224C147.95 45.6053 148.179 44.8213 148.179 43.872C148.179 42.912 147.944 42.128 147.475 41.52C147.016 40.9013 146.366 40.592 145.523 40.592C144.67 40.592 144.008 40.9013 143.539 41.52C143.08 42.1387 142.851 42.9227 142.851 43.872C142.851 44.8213 143.08 45.6053 143.539 46.224ZM153.986 48V39.728H155.282V48H153.986ZM153.986 38.16V36.56H155.282V38.16H153.986ZM160.505 48.24C159.374 48.24 158.494 47.9893 157.865 47.488C157.246 46.976 156.905 46.2507 156.841 45.312H158.169C158.318 46.5387 159.107 47.152 160.537 47.152C161.187 47.152 161.667 47.0293 161.977 46.784C162.297 46.528 162.457 46.1973 162.457 45.792C162.457 45.3547 162.302 45.04 161.993 44.848C161.683 44.656 161.118 44.4747 160.297 44.304C159.955 44.2293 159.683 44.1707 159.481 44.128C159.289 44.0747 159.054 44.0053 158.777 43.92C158.499 43.824 158.281 43.7227 158.121 43.616C157.971 43.4987 157.817 43.36 157.657 43.2C157.497 43.04 157.379 42.8427 157.305 42.608C157.241 42.3733 157.209 42.112 157.209 41.824C157.209 41.12 157.465 40.5653 157.977 40.16C158.499 39.7547 159.235 39.552 160.185 39.552C162.147 39.552 163.23 40.416 163.433 42.144H162.105C162.041 41.6 161.854 41.2053 161.545 40.96C161.235 40.704 160.771 40.576 160.153 40.576C159.587 40.576 159.166 40.688 158.889 40.912C158.622 41.1253 158.489 41.408 158.489 41.76C158.489 42.1653 158.649 42.4533 158.969 42.624C159.289 42.784 159.87 42.9493 160.713 43.12C161.225 43.2267 161.625 43.328 161.913 43.424C162.211 43.5093 162.521 43.648 162.841 43.84C163.161 44.0213 163.395 44.2667 163.545 44.576C163.694 44.8853 163.769 45.2693 163.769 45.728C163.769 46.5387 163.47 47.1627 162.873 47.6C162.275 48.0267 161.486 48.24 160.505 48.24ZM174.628 46.976C173.903 47.808 172.938 48.224 171.732 48.224C170.527 48.224 169.556 47.808 168.82 46.976C168.095 46.144 167.732 45.1093 167.732 43.872C167.732 42.6347 168.095 41.6 168.82 40.768C169.556 39.936 170.527 39.52 171.732 39.52C172.938 39.52 173.903 39.936 174.628 40.768C175.354 41.6 175.716 42.6347 175.716 43.872C175.716 45.1093 175.354 46.144 174.628 46.976ZM169.748 46.224C170.218 46.832 170.879 47.136 171.732 47.136C172.586 47.136 173.242 46.832 173.7 46.224C174.159 45.6053 174.388 44.8213 174.388 43.872C174.388 42.912 174.154 42.128 173.684 41.52C173.226 40.9013 172.575 40.592 171.732 40.592C170.879 40.592 170.218 40.9013 169.748 41.52C169.29 42.1387 169.06 42.9227 169.06 43.872C169.06 44.8213 169.29 45.6053 169.748 46.224ZM178.625 39.728V40.816H178.657C179.297 39.9627 180.171 39.536 181.281 39.536C182.155 39.536 182.838 39.7653 183.329 40.224C183.819 40.6827 184.065 41.3387 184.065 42.192V48H182.769V42.304C182.769 41.7707 182.603 41.36 182.273 41.072C181.942 40.7733 181.483 40.624 180.897 40.624C180.235 40.624 179.691 40.8373 179.265 41.264C178.838 41.6907 178.625 42.24 178.625 42.912V48H177.329V39.728H178.625ZM189.161 48V36.56H193.929C195.123 36.56 196.03 36.928 196.649 37.664C197.161 38.2613 197.417 38.9867 197.417 39.84C197.417 40.9067 197.107 41.7333 196.489 42.32C195.87 42.9067 194.947 43.2 193.721 43.2H190.601V48H189.161ZM190.601 37.808V42.032H193.609C194.398 42.032 194.99 41.8453 195.385 41.472C195.79 41.0987 195.993 40.576 195.993 39.904C195.993 39.2213 195.79 38.704 195.385 38.352C194.99 37.9893 194.425 37.808 193.689 37.808H190.601ZM205.127 46.976C204.402 47.808 203.436 48.224 202.231 48.224C201.026 48.224 200.055 47.808 199.319 46.976C198.594 46.144 198.231 45.1093 198.231 43.872C198.231 42.6347 198.594 41.6 199.319 40.768C200.055 39.936 201.026 39.52 202.231 39.52C203.436 39.52 204.402 39.936 205.127 40.768C205.852 41.6 206.215 42.6347 206.215 43.872C206.215 45.1093 205.852 46.144 205.127 46.976ZM200.247 46.224C200.716 46.832 201.378 47.136 202.231 47.136C203.084 47.136 203.74 46.832 204.199 46.224C204.658 45.6053 204.887 44.8213 204.887 43.872C204.887 42.912 204.652 42.128 204.183 41.52C203.724 40.9013 203.074 40.592 202.231 40.592C201.378 40.592 200.716 40.9013 200.247 41.52C199.788 42.1387 199.559 42.9227 199.559 43.872C199.559 44.8213 199.788 45.6053 200.247 46.224ZM207.875 48V36.56H209.171V48H207.875ZM212.36 50.736C211.869 50.736 211.48 50.6773 211.192 50.56V49.408H211.256C211.469 49.5253 211.762 49.584 212.136 49.584C212.424 49.584 212.664 49.5093 212.856 49.36C213.048 49.2213 213.218 48.96 213.368 48.576L213.688 47.76L210.456 39.728H211.864L213.816 44.88L214.376 46.496H214.408C214.6 45.8773 214.781 45.3387 214.952 44.88L216.84 39.728H218.216L214.68 48.672C214.36 49.4827 214.029 50.0267 213.688 50.304C213.346 50.592 212.904 50.736 212.36 50.736ZM222.592 50.752C221.536 50.752 220.704 50.5493 220.096 50.144C219.498 49.7493 219.162 49.1893 219.088 48.464H220.288C220.405 49.3067 221.162 49.728 222.56 49.728C224.138 49.728 224.928 49.0187 224.928 47.6V46.432H224.896C224.565 46.8587 224.213 47.1787 223.84 47.392C223.466 47.6053 223.002 47.712 222.448 47.712C221.381 47.712 220.512 47.328 219.84 46.56C219.168 45.792 218.832 44.8107 218.832 43.616C218.832 42.368 219.168 41.376 219.84 40.64C220.522 39.904 221.365 39.536 222.368 39.536C223.456 39.536 224.298 39.952 224.896 40.784H224.928V39.728H226.224V47.552C226.224 48.608 225.898 49.4027 225.248 49.936C224.608 50.48 223.722 50.752 222.592 50.752ZM222.512 46.624C224.186 46.624 225.024 45.6 225.024 43.552C225.024 41.6 224.181 40.624 222.496 40.624C221.738 40.624 221.157 40.896 220.752 41.44C220.357 41.984 220.16 42.7147 220.16 43.632C220.16 44.5493 220.362 45.28 220.768 45.824C221.173 46.3573 221.754 46.624 222.512 46.624ZM234.735 46.976C234.01 47.808 233.044 48.224 231.839 48.224C230.634 48.224 229.663 47.808 228.927 46.976C228.202 46.144 227.839 45.1093 227.839 43.872C227.839 42.6347 228.202 41.6 228.927 40.768C229.663 39.936 230.634 39.52 231.839 39.52C233.044 39.52 234.01 39.936 234.735 40.768C235.46 41.6 235.823 42.6347 235.823 43.872C235.823 45.1093 235.46 46.144 234.735 46.976ZM229.855 46.224C230.324 46.832 230.986 47.136 231.839 47.136C232.692 47.136 233.348 46.832 233.807 46.224C234.266 45.6053 234.495 44.8213 234.495 43.872C234.495 42.912 234.26 42.128 233.791 41.52C233.332 40.9013 232.682 40.592 231.839 40.592C230.986 40.592 230.324 40.9013 229.855 41.52C229.396 42.1387 229.167 42.9227 229.167 43.872C229.167 44.8213 229.396 45.6053 229.855 46.224ZM238.732 39.728V40.816H238.764C239.404 39.9627 240.278 39.536 241.388 39.536C242.262 39.536 242.945 39.7653 243.436 40.224C243.926 40.6827 244.172 41.3387 244.172 42.192V48H242.876V42.304C242.876 41.7707 242.71 41.36 242.38 41.072C242.049 40.7733 241.59 40.624 241.004 40.624C240.342 40.624 239.798 40.8373 239.372 41.264C238.945 41.6907 238.732 42.24 238.732 42.912V48H237.436V39.728H238.732ZM249.268 48V36.56H251.108L254.82 46.064H254.852L258.532 36.56H260.404V48H259.028V38.592H258.996C258.793 39.1893 258.622 39.6693 258.484 40.032L255.348 48H254.244L251.108 40.032L250.596 38.592H250.564V48H249.268ZM269.237 48H267.941V46.864H267.909C267.258 47.7493 266.426 48.192 265.413 48.192C264.56 48.192 263.882 47.952 263.381 47.472C262.88 46.9813 262.629 46.3093 262.629 45.456V39.728H263.925V45.424C263.925 45.9573 264.085 46.3733 264.405 46.672C264.736 46.9707 265.194 47.12 265.781 47.12C266.432 47.12 266.954 46.9013 267.349 46.464C267.744 46.0267 267.941 45.4773 267.941 44.816V39.728H269.237V48ZM271.309 48V39.728H272.605V40.912H272.637C272.904 40.496 273.251 40.1653 273.677 39.92C274.104 39.664 274.568 39.536 275.069 39.536C276.147 39.536 276.867 40.0267 277.229 41.008H277.261C277.517 40.5493 277.875 40.192 278.333 39.936C278.792 39.6693 279.277 39.536 279.789 39.536C280.547 39.536 281.155 39.7707 281.613 40.24C282.072 40.6987 282.301 41.3493 282.301 42.192V48H281.005V42.256C281.005 41.7547 280.856 41.36 280.557 41.072C280.269 40.7733 279.912 40.624 279.485 40.624C278.941 40.624 278.467 40.8373 278.061 41.264C277.656 41.6907 277.453 42.2187 277.453 42.848V48H276.157V42.256C276.157 41.7547 276.024 41.36 275.757 41.072C275.501 40.7733 275.16 40.624 274.733 40.624C274.2 40.624 273.709 40.8427 273.261 41.28C272.824 41.7067 272.605 42.2293 272.605 42.848V48H271.309ZM288.268 48.24C287.17 48.24 286.3 47.7973 285.66 46.912H285.628V48H284.332V36.56H285.628V40.912H285.66C286.332 39.9947 287.218 39.536 288.316 39.536C289.383 39.536 290.236 39.9253 290.876 40.704C291.516 41.472 291.837 42.5333 291.837 43.888C291.837 45.2213 291.516 46.2827 290.876 47.072C290.247 47.8507 289.378 48.24 288.268 48.24ZM288.172 47.152C288.94 47.152 289.522 46.8587 289.916 46.272C290.311 45.6747 290.508 44.8853 290.508 43.904C290.508 42.9333 290.311 42.1493 289.916 41.552C289.522 40.944 288.946 40.64 288.188 40.64C287.324 40.64 286.668 40.9493 286.22 41.568C285.772 42.176 285.548 42.9547 285.548 43.904C285.548 44.8747 285.772 45.6587 286.22 46.256C286.668 46.8533 287.319 47.152 288.172 47.152ZM299.945 48.08C299.124 48.08 298.649 47.6693 298.521 46.848H298.505C297.823 47.7227 296.905 48.16 295.753 48.16C294.932 48.16 294.26 47.9627 293.737 47.568C293.215 47.1733 292.953 46.6027 292.953 45.856C292.953 45.472 293.012 45.1413 293.129 44.864C293.257 44.576 293.417 44.3467 293.609 44.176C293.801 43.9947 294.063 43.84 294.393 43.712C294.735 43.5733 295.06 43.472 295.369 43.408C295.679 43.3333 296.073 43.2587 296.553 43.184C296.863 43.1413 297.081 43.1093 297.209 43.088C297.348 43.056 297.524 43.0133 297.737 42.96C297.951 42.896 298.1 42.8267 298.185 42.752C298.271 42.6773 298.351 42.576 298.425 42.448C298.5 42.32 298.537 42.1707 298.537 42C298.537 41.5307 298.372 41.1733 298.041 40.928C297.721 40.672 297.268 40.544 296.681 40.544C295.348 40.544 294.66 41.152 294.617 42.368H293.369C293.391 41.5253 293.679 40.848 294.233 40.336C294.799 39.824 295.609 39.568 296.665 39.568C298.703 39.568 299.721 40.4427 299.721 42.192V46.128C299.721 46.4907 299.78 46.7467 299.897 46.896C300.025 47.0453 300.26 47.0827 300.601 47.008H300.649V47.952C300.436 48.0373 300.201 48.08 299.945 48.08ZM296.041 47.168C296.841 47.168 297.46 46.9387 297.897 46.48C298.335 46.0107 298.553 45.4987 298.553 44.944V43.536C298.159 43.7813 297.529 43.984 296.665 44.144C296.345 44.208 296.095 44.2613 295.913 44.304C295.732 44.336 295.524 44.4 295.289 44.496C295.055 44.5813 294.879 44.6773 294.761 44.784C294.644 44.8907 294.543 45.0347 294.457 45.216C294.372 45.3867 294.329 45.5893 294.329 45.824C294.329 46.72 294.9 47.168 296.041 47.168ZM301.926 48V39.728H303.222V48H301.926ZM301.926 38.16V36.56H303.222V38.16H301.926ZM77.352 62.784V61.728H78.552V59.12H79.848V61.728H81.448V62.784H79.848V68.16C79.848 68.672 80.1253 68.928 80.68 68.928C80.9147 68.928 81.144 68.8907 81.368 68.816H81.416V69.936C81.064 70.0107 80.7173 70.048 80.376 70.048C79.16 70.048 78.552 69.5147 78.552 68.448V62.784H77.352ZM86.5641 70.224C85.3375 70.224 84.3615 69.8133 83.6361 68.992C82.9215 68.16 82.5641 67.12 82.5641 65.872C82.5641 64.6453 82.9268 63.616 83.6521 62.784C84.3881 61.9413 85.3321 61.52 86.4841 61.52C87.7001 61.52 88.6388 61.9467 89.3001 62.8C89.9615 63.6427 90.2921 64.768 90.2921 66.176H83.8921C83.9455 67.0507 84.2015 67.7653 84.6601 68.32C85.1295 68.864 85.7641 69.136 86.5641 69.136C87.8015 69.136 88.5641 68.5707 88.8521 67.44H90.1161C89.9241 68.3253 89.5188 69.0133 88.9001 69.504C88.2815 69.984 87.5028 70.224 86.5641 70.224ZM88.2121 63.248C87.7961 62.7787 87.2201 62.544 86.4841 62.544C85.7481 62.544 85.1615 62.7893 84.7241 63.28C84.2975 63.7707 84.0308 64.4107 83.9241 65.2H88.9001C88.8575 64.368 88.6281 63.7173 88.2121 63.248ZM95.0154 70.24C93.8847 70.24 93.0047 69.9893 92.3754 69.488C91.7567 68.976 91.4154 68.2507 91.3514 67.312H92.6794C92.8287 68.5387 93.618 69.152 95.0474 69.152C95.698 69.152 96.178 69.0293 96.4874 68.784C96.8074 68.528 96.9674 68.1973 96.9674 67.792C96.9674 67.3547 96.8127 67.04 96.5034 66.848C96.194 66.656 95.6287 66.4747 94.8074 66.304C94.466 66.2293 94.194 66.1707 93.9914 66.128C93.7994 66.0747 93.5647 66.0053 93.2874 65.92C93.01 65.824 92.7914 65.7227 92.6314 65.616C92.482 65.4987 92.3274 65.36 92.1674 65.2C92.0074 65.04 91.89 64.8427 91.8154 64.608C91.7514 64.3733 91.7194 64.112 91.7194 63.824C91.7194 63.12 91.9754 62.5653 92.4874 62.16C93.01 61.7547 93.746 61.552 94.6954 61.552C96.658 61.552 97.7407 62.416 97.9434 64.144H96.6154C96.5514 63.6 96.3647 63.2053 96.0554 62.96C95.746 62.704 95.282 62.576 94.6634 62.576C94.098 62.576 93.6767 62.688 93.3994 62.912C93.1327 63.1253 92.9994 63.408 92.9994 63.76C92.9994 64.1653 93.1594 64.4533 93.4794 64.624C93.7994 64.784 94.3807 64.9493 95.2234 65.12C95.7354 65.2267 96.1354 65.328 96.4234 65.424C96.722 65.5093 97.0314 65.648 97.3514 65.84C97.6714 66.0213 97.906 66.2667 98.0554 66.576C98.2047 66.8853 98.2794 67.2693 98.2794 67.728C98.2794 68.5387 97.9807 69.1627 97.3834 69.6C96.786 70.0267 95.9967 70.24 95.0154 70.24ZM99.1557 62.784V61.728H100.356V59.12H101.652V61.728H103.252V62.784H101.652V68.16C101.652 68.672 101.929 68.928 102.484 68.928C102.718 68.928 102.948 68.8907 103.172 68.816H103.22V69.936C102.868 70.0107 102.521 70.048 102.18 70.048C100.964 70.048 100.356 69.5147 100.356 68.448V62.784H99.1557ZM106.206 61.728V62.816H106.238C106.878 61.9627 107.753 61.536 108.862 61.536C109.737 61.536 110.419 61.7653 110.91 62.224C111.401 62.6827 111.646 63.3387 111.646 64.192V70H110.35V64.304C110.35 63.7707 110.185 63.36 109.854 63.072C109.523 62.7733 109.065 62.624 108.478 62.624C107.817 62.624 107.273 62.8373 106.846 63.264C106.419 63.6907 106.206 64.24 106.206 64.912V70H104.91V61.728H106.206ZM117.219 70.224C115.992 70.224 115.016 69.8133 114.291 68.992C113.576 68.16 113.219 67.12 113.219 65.872C113.219 64.6453 113.582 63.616 114.307 62.784C115.043 61.9413 115.987 61.52 117.139 61.52C118.355 61.52 119.294 61.9467 119.955 62.8C120.616 63.6427 120.947 64.768 120.947 66.176H114.547C114.6 67.0507 114.856 67.7653 115.315 68.32C115.784 68.864 116.419 69.136 117.219 69.136C118.456 69.136 119.219 68.5707 119.507 67.44H120.771C120.579 68.3253 120.174 69.0133 119.555 69.504C118.936 69.984 118.158 70.224 117.219 70.224ZM118.867 63.248C118.451 62.7787 117.875 62.544 117.139 62.544C116.403 62.544 115.816 62.7893 115.379 63.28C114.952 63.7707 114.686 64.4107 114.579 65.2H119.555C119.512 64.368 119.283 63.7173 118.867 63.248ZM121.85 62.784V61.728H123.05V59.12H124.346V61.728H125.946V62.784H124.346V68.16C124.346 68.672 124.623 68.928 125.178 68.928C125.413 68.928 125.642 68.8907 125.866 68.816H125.914V69.936C125.562 70.0107 125.215 70.048 124.874 70.048C123.658 70.048 123.05 69.5147 123.05 68.448V62.784H121.85ZM127.601 72.048V71.328C128.081 71.1573 128.321 70.7147 128.321 70H127.585V68.416H129.137V70.048C129.137 70.6133 128.998 71.0613 128.721 71.392C128.443 71.7333 128.07 71.952 127.601 72.048ZM137.037 70.24C135.906 70.24 135.026 69.9893 134.397 69.488C133.778 68.976 133.437 68.2507 133.373 67.312H134.701C134.85 68.5387 135.639 69.152 137.069 69.152C137.719 69.152 138.199 69.0293 138.509 68.784C138.829 68.528 138.989 68.1973 138.989 67.792C138.989 67.3547 138.834 67.04 138.525 66.848C138.215 66.656 137.65 66.4747 136.829 66.304C136.487 66.2293 136.215 66.1707 136.013 66.128C135.821 66.0747 135.586 66.0053 135.309 65.92C135.031 65.824 134.813 65.7227 134.653 65.616C134.503 65.4987 134.349 65.36 134.189 65.2C134.029 65.04 133.911 64.8427 133.837 64.608C133.773 64.3733 133.741 64.112 133.741 63.824C133.741 63.12 133.997 62.5653 134.509 62.16C135.031 61.7547 135.767 61.552 136.717 61.552C138.679 61.552 139.762 62.416 139.965 64.144H138.637C138.573 63.6 138.386 63.2053 138.077 62.96C137.767 62.704 137.303 62.576 136.685 62.576C136.119 62.576 135.698 62.688 135.421 62.912C135.154 63.1253 135.021 63.408 135.021 63.76C135.021 64.1653 135.181 64.4533 135.501 64.624C135.821 64.784 136.402 64.9493 137.245 65.12C137.757 65.2267 138.157 65.328 138.445 65.424C138.743 65.5093 139.053 65.648 139.373 65.84C139.693 66.0213 139.927 66.2667 140.077 66.576C140.226 66.8853 140.301 67.2693 140.301 67.728C140.301 68.5387 140.002 69.1627 139.405 69.6C138.807 70.0267 138.018 70.24 137.037 70.24ZM148.449 68.976C147.724 69.808 146.759 70.224 145.553 70.224C144.348 70.224 143.377 69.808 142.641 68.976C141.916 68.144 141.553 67.1093 141.553 65.872C141.553 64.6347 141.916 63.6 142.641 62.768C143.377 61.936 144.348 61.52 145.553 61.52C146.759 61.52 147.724 61.936 148.449 62.768C149.175 63.6 149.537 64.6347 149.537 65.872C149.537 67.1093 149.175 68.144 148.449 68.976ZM143.569 68.224C144.039 68.832 144.7 69.136 145.553 69.136C146.407 69.136 147.063 68.832 147.521 68.224C147.98 67.6053 148.209 66.8213 148.209 65.872C148.209 64.912 147.975 64.128 147.505 63.52C147.047 62.9013 146.396 62.592 145.553 62.592C144.7 62.592 144.039 62.9013 143.569 63.52C143.111 64.1387 142.881 64.9227 142.881 65.872C142.881 66.8213 143.111 67.6053 143.569 68.224ZM151.15 70V61.728H152.446V62.912H152.478C152.745 62.496 153.091 62.1653 153.518 61.92C153.945 61.664 154.409 61.536 154.91 61.536C155.987 61.536 156.707 62.0267 157.07 63.008H157.102C157.358 62.5493 157.715 62.192 158.174 61.936C158.633 61.6693 159.118 61.536 159.63 61.536C160.387 61.536 160.995 61.7707 161.454 62.24C161.913 62.6987 162.142 63.3493 162.142 64.192V70H160.846V64.256C160.846 63.7547 160.697 63.36 160.398 63.072C160.11 62.7733 159.753 62.624 159.326 62.624C158.782 62.624 158.307 62.8373 157.902 63.264C157.497 63.6907 157.294 64.2187 157.294 64.848V70H155.998V64.256C155.998 63.7547 155.865 63.36 155.598 63.072C155.342 62.7733 155.001 62.624 154.574 62.624C154.041 62.624 153.55 62.8427 153.102 63.28C152.665 63.7067 152.446 64.2293 152.446 64.848V70H151.15ZM167.709 70.224C166.482 70.224 165.506 69.8133 164.781 68.992C164.066 68.16 163.709 67.12 163.709 65.872C163.709 64.6453 164.072 63.616 164.797 62.784C165.533 61.9413 166.477 61.52 167.629 61.52C168.845 61.52 169.784 61.9467 170.445 62.8C171.106 63.6427 171.437 64.768 171.437 66.176H165.037C165.09 67.0507 165.346 67.7653 165.805 68.32C166.274 68.864 166.909 69.136 167.709 69.136C168.946 69.136 169.709 68.5707 169.997 67.44H171.261C171.069 68.3253 170.664 69.0133 170.045 69.504C169.426 69.984 168.648 70.224 167.709 70.224ZM169.357 63.248C168.941 62.7787 168.365 62.544 167.629 62.544C166.893 62.544 166.306 62.7893 165.869 63.28C165.442 63.7707 165.176 64.4107 165.069 65.2H170.045C170.002 64.368 169.773 63.7173 169.357 63.248ZM175.363 62.784V61.728H176.499V60.4C176.499 59.7173 176.686 59.2267 177.059 58.928C177.433 58.6187 177.977 58.464 178.691 58.464C178.894 58.464 179.113 58.4747 179.347 58.496V59.6C179.198 59.5893 179.059 59.584 178.931 59.584C178.515 59.584 178.222 59.648 178.051 59.776C177.881 59.904 177.795 60.1333 177.795 60.464V61.728H179.331V62.784H177.795V70H176.499V62.784H175.363ZM184.216 70.224C182.989 70.224 182.013 69.8133 181.288 68.992C180.573 68.16 180.216 67.12 180.216 65.872C180.216 64.6453 180.579 63.616 181.304 62.784C182.04 61.9413 182.984 61.52 184.136 61.52C185.352 61.52 186.291 61.9467 186.952 62.8C187.613 63.6427 187.944 64.768 187.944 66.176H181.544C181.597 67.0507 181.853 67.7653 182.312 68.32C182.781 68.864 183.416 69.136 184.216 69.136C185.453 69.136 186.216 68.5707 186.504 67.44H187.768C187.576 68.3253 187.171 69.0133 186.552 69.504C185.933 69.984 185.155 70.224 184.216 70.224ZM185.864 63.248C185.448 62.7787 184.872 62.544 184.136 62.544C183.4 62.544 182.813 62.7893 182.376 63.28C181.949 63.7707 181.683 64.4107 181.576 65.2H186.552C186.509 64.368 186.28 63.7173 185.864 63.248ZM196.027 70.08C195.206 70.08 194.731 69.6693 194.603 68.848H194.587C193.905 69.7227 192.987 70.16 191.835 70.16C191.014 70.16 190.342 69.9627 189.819 69.568C189.297 69.1733 189.035 68.6027 189.035 67.856C189.035 67.472 189.094 67.1413 189.211 66.864C189.339 66.576 189.499 66.3467 189.691 66.176C189.883 65.9947 190.145 65.84 190.475 65.712C190.817 65.5733 191.142 65.472 191.451 65.408C191.761 65.3333 192.155 65.2587 192.635 65.184C192.945 65.1413 193.163 65.1093 193.291 65.088C193.43 65.056 193.606 65.0133 193.819 64.96C194.033 64.896 194.182 64.8267 194.267 64.752C194.353 64.6773 194.433 64.576 194.507 64.448C194.582 64.32 194.619 64.1707 194.619 64C194.619 63.5307 194.454 63.1733 194.123 62.928C193.803 62.672 193.35 62.544 192.763 62.544C191.43 62.544 190.742 63.152 190.699 64.368H189.451C189.473 63.5253 189.761 62.848 190.315 62.336C190.881 61.824 191.691 61.568 192.747 61.568C194.785 61.568 195.803 62.4427 195.803 64.192V68.128C195.803 68.4907 195.862 68.7467 195.979 68.896C196.107 69.0453 196.342 69.0827 196.683 69.008H196.731V69.952C196.518 70.0373 196.283 70.08 196.027 70.08ZM192.123 69.168C192.923 69.168 193.542 68.9387 193.979 68.48C194.417 68.0107 194.635 67.4987 194.635 66.944V65.536C194.241 65.7813 193.611 65.984 192.747 66.144C192.427 66.208 192.177 66.2613 191.995 66.304C191.814 66.336 191.606 66.4 191.371 66.496C191.137 66.5813 190.961 66.6773 190.843 66.784C190.726 66.8907 190.625 67.0347 190.539 67.216C190.454 67.3867 190.411 67.5893 190.411 67.824C190.411 68.72 190.982 69.168 192.123 69.168ZM197.323 62.784V61.728H198.523V59.12H199.819V61.728H201.419V62.784H199.819V68.16C199.819 68.672 200.097 68.928 200.651 68.928C200.886 68.928 201.115 68.8907 201.339 68.816H201.387V69.936C201.035 70.0107 200.689 70.048 200.347 70.048C199.131 70.048 198.523 69.5147 198.523 68.448V62.784H197.323ZM209.638 70H208.342V68.864H208.31C207.659 69.7493 206.827 70.192 205.814 70.192C204.96 70.192 204.283 69.952 203.782 69.472C203.28 68.9813 203.03 68.3093 203.03 67.456V61.728H204.326V67.424C204.326 67.9573 204.486 68.3733 204.806 68.672C205.136 68.9707 205.595 69.12 206.182 69.12C206.832 69.12 207.355 68.9013 207.75 68.464C208.144 68.0267 208.342 67.4773 208.342 66.816V61.728H209.638V70ZM213.006 61.728V63.104H213.038C213.305 62.6667 213.651 62.3147 214.078 62.048C214.505 61.7707 214.979 61.632 215.502 61.632C215.694 61.632 215.87 61.664 216.03 61.728V62.976H215.982C215.822 62.9227 215.63 62.896 215.406 62.896C214.745 62.896 214.179 63.1307 213.71 63.6C213.241 64.0587 213.006 64.6613 213.006 65.408V70H211.71V61.728H213.006ZM220.738 70.224C219.511 70.224 218.535 69.8133 217.81 68.992C217.095 68.16 216.738 67.12 216.738 65.872C216.738 64.6453 217.101 63.616 217.826 62.784C218.562 61.9413 219.506 61.52 220.658 61.52C221.874 61.52 222.813 61.9467 223.474 62.8C224.135 63.6427 224.466 64.768 224.466 66.176H218.066C218.119 67.0507 218.375 67.7653 218.834 68.32C219.303 68.864 219.938 69.136 220.738 69.136C221.975 69.136 222.738 68.5707 223.026 67.44H224.29C224.098 68.3253 223.693 69.0133 223.074 69.504C222.455 69.984 221.677 70.224 220.738 70.224ZM222.386 63.248C221.97 62.7787 221.394 62.544 220.658 62.544C219.922 62.544 219.335 62.7893 218.898 63.28C218.471 63.7707 218.205 64.4107 218.098 65.2H223.074C223.031 64.368 222.802 63.7173 222.386 63.248ZM229.189 70.24C228.058 70.24 227.178 69.9893 226.549 69.488C225.93 68.976 225.589 68.2507 225.525 67.312H226.853C227.002 68.5387 227.792 69.152 229.221 69.152C229.872 69.152 230.352 69.0293 230.661 68.784C230.981 68.528 231.141 68.1973 231.141 67.792C231.141 67.3547 230.986 67.04 230.677 66.848C230.368 66.656 229.802 66.4747 228.981 66.304C228.64 66.2293 228.368 66.1707 228.165 66.128C227.973 66.0747 227.738 66.0053 227.461 65.92C227.184 65.824 226.965 65.7227 226.805 65.616C226.656 65.4987 226.501 65.36 226.341 65.2C226.181 65.04 226.064 64.8427 225.989 64.608C225.925 64.3733 225.893 64.112 225.893 63.824C225.893 63.12 226.149 62.5653 226.661 62.16C227.184 61.7547 227.92 61.552 228.869 61.552C230.832 61.552 231.914 62.416 232.117 64.144H230.789C230.725 63.6 230.538 63.2053 230.229 62.96C229.92 62.704 229.456 62.576 228.837 62.576C228.272 62.576 227.85 62.688 227.573 62.912C227.306 63.1253 227.173 63.408 227.173 63.76C227.173 64.1653 227.333 64.4533 227.653 64.624C227.973 64.784 228.554 64.9493 229.397 65.12C229.909 65.2267 230.309 65.328 230.597 65.424C230.896 65.5093 231.205 65.648 231.525 65.84C231.845 66.0213 232.08 66.2667 232.229 66.576C232.378 66.8853 232.453 67.2693 232.453 67.728C232.453 68.5387 232.154 69.1627 231.557 69.6C230.96 70.0267 230.17 70.24 229.189 70.24ZM236.881 70V61.728H238.177V62.912H238.209C238.475 62.496 238.822 62.1653 239.249 61.92C239.675 61.664 240.139 61.536 240.641 61.536C241.718 61.536 242.438 62.0267 242.801 63.008H242.833C243.089 62.5493 243.446 62.192 243.905 61.936C244.363 61.6693 244.849 61.536 245.361 61.536C246.118 61.536 246.726 61.7707 247.185 62.24C247.643 62.6987 247.873 63.3493 247.873 64.192V70H246.577V64.256C246.577 63.7547 246.427 63.36 246.129 63.072C245.841 62.7733 245.483 62.624 245.057 62.624C244.513 62.624 244.038 62.8373 243.633 63.264C243.227 63.6907 243.025 64.2187 243.025 64.848V70H241.729V64.256C241.729 63.7547 241.595 63.36 241.329 63.072C241.073 62.7733 240.731 62.624 240.305 62.624C239.771 62.624 239.281 62.8427 238.833 63.28C238.395 63.7067 238.177 64.2293 238.177 64.848V70H236.881ZM249.904 70V61.728H251.2V70H249.904ZM249.904 60.16V58.56H251.2V60.16H249.904ZM256.582 72.752C255.526 72.752 254.694 72.5493 254.086 72.144C253.489 71.7493 253.153 71.1893 253.078 70.464H254.278C254.396 71.3067 255.153 71.728 256.55 71.728C258.129 71.728 258.918 71.0187 258.918 69.6V68.432H258.886C258.556 68.8587 258.204 69.1787 257.83 69.392C257.457 69.6053 256.993 69.712 256.438 69.712C255.372 69.712 254.502 69.328 253.83 68.56C253.158 67.792 252.822 66.8107 252.822 65.616C252.822 64.368 253.158 63.376 253.83 62.64C254.513 61.904 255.356 61.536 256.358 61.536C257.446 61.536 258.289 61.952 258.886 62.784H258.918V61.728H260.214V69.552C260.214 70.608 259.889 71.4027 259.238 71.936C258.598 72.48 257.713 72.752 256.582 72.752ZM256.502 68.624C258.177 68.624 259.014 67.6 259.014 65.552C259.014 63.6 258.172 62.624 256.486 62.624C255.729 62.624 255.148 62.896 254.742 63.44C254.348 63.984 254.15 64.7147 254.15 65.632C254.15 66.5493 254.353 67.28 254.758 67.824C255.164 68.3573 255.745 68.624 256.502 68.624ZM263.59 58.56V62.816H263.622C264.262 61.9627 265.136 61.536 266.246 61.536C267.12 61.536 267.803 61.7653 268.294 62.224C268.784 62.6827 269.03 63.3387 269.03 64.192V70H267.734V64.304C267.734 63.7707 267.568 63.36 267.238 63.072C266.907 62.7733 266.448 62.624 265.862 62.624C265.2 62.624 264.656 62.8373 264.23 63.264C263.803 63.6907 263.59 64.24 263.59 64.912V70H262.294V58.56H263.59ZM270.383 62.784V61.728H271.583V59.12H272.879V61.728H274.479V62.784H272.879V68.16C272.879 68.672 273.156 68.928 273.711 68.928C273.945 68.928 274.175 68.8907 274.399 68.816H274.447V69.936C274.095 70.0107 273.748 70.048 273.407 70.048C272.191 70.048 271.583 69.5147 271.583 68.448V62.784H270.383ZM282.94 70.24C281.841 70.24 280.972 69.7973 280.332 68.912H280.3V70H279.004V58.56H280.3V62.912H280.332C281.004 61.9947 281.889 61.536 282.988 61.536C284.054 61.536 284.908 61.9253 285.548 62.704C286.188 63.472 286.508 64.5333 286.508 65.888C286.508 67.2213 286.188 68.2827 285.548 69.072C284.918 69.8507 284.049 70.24 282.94 70.24ZM282.844 69.152C283.612 69.152 284.193 68.8587 284.588 68.272C284.982 67.6747 285.18 66.8853 285.18 65.904C285.18 64.9333 284.982 64.1493 284.588 63.552C284.193 62.944 283.617 62.64 282.86 62.64C281.996 62.64 281.34 62.9493 280.892 63.568C280.444 64.176 280.22 64.9547 280.22 65.904C280.22 66.8747 280.444 67.6587 280.892 68.256C281.34 68.8533 281.99 69.152 282.844 69.152ZM291.657 70.224C290.43 70.224 289.454 69.8133 288.729 68.992C288.014 68.16 287.657 67.12 287.657 65.872C287.657 64.6453 288.019 63.616 288.745 62.784C289.481 61.9413 290.425 61.52 291.577 61.52C292.793 61.52 293.731 61.9467 294.393 62.8C295.054 63.6427 295.385 64.768 295.385 66.176H288.985C289.038 67.0507 289.294 67.7653 289.753 68.32C290.222 68.864 290.857 69.136 291.657 69.136C292.894 69.136 293.657 68.5707 293.945 67.44H295.209C295.017 68.3253 294.611 69.0133 293.993 69.504C293.374 69.984 292.595 70.224 291.657 70.224ZM293.305 63.248C292.889 62.7787 292.313 62.544 291.577 62.544C290.841 62.544 290.254 62.7893 289.817 63.28C289.39 63.7707 289.123 64.4107 289.017 65.2H293.993C293.95 64.368 293.721 63.7173 293.305 63.248ZM79.176 83.728V85.104H79.208C79.4747 84.6667 79.8213 84.3147 80.248 84.048C80.6747 83.7707 81.1493 83.632 81.672 83.632C81.864 83.632 82.04 83.664 82.2 83.728V84.976H82.152C81.992 84.9227 81.8 84.896 81.576 84.896C80.9147 84.896 80.3493 85.1307 79.88 85.6C79.4107 86.0587 79.176 86.6613 79.176 87.408V92H77.88V83.728H79.176ZM86.9079 92.224C85.6812 92.224 84.7052 91.8133 83.9799 90.992C83.2652 90.16 82.9079 89.12 82.9079 87.872C82.9079 86.6453 83.2705 85.616 83.9959 84.784C84.7319 83.9413 85.6759 83.52 86.8279 83.52C88.0439 83.52 88.9825 83.9467 89.6439 84.8C90.3052 85.6427 90.6359 86.768 90.6359 88.176H84.2359C84.2892 89.0507 84.5452 89.7653 85.0039 90.32C85.4732 90.864 86.1079 91.136 86.9079 91.136C88.1452 91.136 88.9079 90.5707 89.1959 89.44H90.4599C90.2679 90.3253 89.8625 91.0133 89.2439 91.504C88.6252 91.984 87.8465 92.224 86.9079 92.224ZM88.5559 85.248C88.1399 84.7787 87.5639 84.544 86.8279 84.544C86.0919 84.544 85.5052 84.7893 85.0679 85.28C84.6412 85.7707 84.3745 86.4107 84.2679 87.2H89.2439C89.2012 86.368 88.9719 85.7173 88.5559 85.248ZM95.3591 92.24C94.2285 92.24 93.3485 91.9893 92.7191 91.488C92.1005 90.976 91.7591 90.2507 91.6951 89.312H93.0231C93.1725 90.5387 93.9618 91.152 95.3911 91.152C96.0418 91.152 96.5218 91.0293 96.8311 90.784C97.1511 90.528 97.3111 90.1973 97.3111 89.792C97.3111 89.3547 97.1565 89.04 96.8471 88.848C96.5378 88.656 95.9725 88.4747 95.1511 88.304C94.8098 88.2293 94.5378 88.1707 94.3351 88.128C94.1431 88.0747 93.9085 88.0053 93.6311 87.92C93.3538 87.824 93.1351 87.7227 92.9751 87.616C92.8258 87.4987 92.6711 87.36 92.5111 87.2C92.3511 87.04 92.2338 86.8427 92.1591 86.608C92.0951 86.3733 92.0631 86.112 92.0631 85.824C92.0631 85.12 92.3191 84.5653 92.8311 84.16C93.3538 83.7547 94.0898 83.552 95.0391 83.552C97.0018 83.552 98.0845 84.416 98.2871 86.144H96.9591C96.8951 85.6 96.7085 85.2053 96.3991 84.96C96.0898 84.704 95.6258 84.576 95.0071 84.576C94.4418 84.576 94.0205 84.688 93.7431 84.912C93.4765 85.1253 93.3431 85.408 93.3431 85.76C93.3431 86.1653 93.5031 86.4533 93.8231 86.624C94.1431 86.784 94.7245 86.9493 95.5671 87.12C96.0791 87.2267 96.4791 87.328 96.7671 87.424C97.0658 87.5093 97.3751 87.648 97.6951 87.84C98.0151 88.0213 98.2498 88.2667 98.3991 88.576C98.5485 88.8853 98.6231 89.2693 98.6231 89.728C98.6231 90.5387 98.3245 91.1627 97.7271 91.6C97.1298 92.0267 96.3405 92.24 95.3591 92.24ZM99.4995 84.784V83.728H100.699V81.12H101.995V83.728H103.595V84.784H101.995V90.16C101.995 90.672 102.273 90.928 102.827 90.928C103.062 90.928 103.291 90.8907 103.515 90.816H103.563V91.936C103.211 92.0107 102.865 92.048 102.523 92.048C101.307 92.048 100.699 91.5147 100.699 90.448V84.784H99.4995ZM106.55 83.728V85.104H106.582C106.848 84.6667 107.195 84.3147 107.622 84.048C108.048 83.7707 108.523 83.632 109.046 83.632C109.238 83.632 109.414 83.664 109.574 83.728V84.976H109.526C109.366 84.9227 109.174 84.896 108.95 84.896C108.288 84.896 107.723 85.1307 107.254 85.6C106.784 86.0587 106.55 86.6613 106.55 87.408V92H105.254V83.728H106.55ZM111.058 92V83.728H112.354V92H111.058ZM111.058 82.16V80.56H112.354V82.16H111.058ZM117.977 92.224C116.771 92.224 115.801 91.808 115.065 90.976C114.339 90.144 113.977 89.1093 113.977 87.872C113.977 86.6347 114.339 85.6 115.065 84.768C115.801 83.936 116.771 83.52 117.977 83.52C118.947 83.52 119.742 83.7813 120.361 84.304C120.979 84.816 121.363 85.5147 121.513 86.4H120.201C120.105 85.8347 119.865 85.392 119.481 85.072C119.097 84.752 118.595 84.592 117.977 84.592C117.123 84.592 116.462 84.9013 115.993 85.52C115.534 86.1387 115.305 86.9227 115.305 87.872C115.305 88.8213 115.534 89.6053 115.993 90.224C116.462 90.832 117.123 91.136 117.977 91.136C118.638 91.136 119.166 90.96 119.561 90.608C119.955 90.2453 120.179 89.7387 120.233 89.088H121.513C121.427 90.08 121.075 90.8533 120.457 91.408C119.838 91.952 119.011 92.224 117.977 92.224ZM122.53 84.784V83.728H123.73V81.12H125.026V83.728H126.626V84.784H125.026V90.16C125.026 90.672 125.303 90.928 125.858 90.928C126.092 90.928 126.322 90.8907 126.546 90.816H126.594V91.936C126.242 92.0107 125.895 92.048 125.554 92.048C124.338 92.048 123.73 91.5147 123.73 90.448V84.784H122.53ZM131.742 92.224C130.515 92.224 129.539 91.8133 128.814 90.992C128.099 90.16 127.742 89.12 127.742 87.872C127.742 86.6453 128.104 85.616 128.83 84.784C129.566 83.9413 130.51 83.52 131.662 83.52C132.878 83.52 133.816 83.9467 134.478 84.8C135.139 85.6427 135.47 86.768 135.47 88.176H129.07C129.123 89.0507 129.379 89.7653 129.838 90.32C130.307 90.864 130.942 91.136 131.742 91.136C132.979 91.136 133.742 90.5707 134.03 89.44H135.294C135.102 90.3253 134.696 91.0133 134.078 91.504C133.459 91.984 132.68 92.224 131.742 92.224ZM133.39 85.248C132.974 84.7787 132.398 84.544 131.662 84.544C130.926 84.544 130.339 84.7893 129.902 85.28C129.475 85.7707 129.208 86.4107 129.102 87.2H134.078C134.035 86.368 133.806 85.7173 133.39 85.248ZM140.257 92.24C139.126 92.24 138.23 91.8507 137.569 91.072C136.918 90.2827 136.593 89.2213 136.593 87.888C136.593 86.544 136.934 85.4827 137.617 84.704C138.3 83.9253 139.169 83.536 140.225 83.536C141.345 83.536 142.209 83.9893 142.817 84.896H142.849V80.56H144.145V92H142.849V90.992H142.817C142.166 91.824 141.313 92.24 140.257 92.24ZM140.305 91.152C141.19 91.152 141.846 90.8587 142.273 90.272C142.71 89.6853 142.929 88.896 142.929 87.904C142.929 86.9227 142.694 86.1333 142.225 85.536C141.766 84.9387 141.121 84.64 140.289 84.64C139.532 84.64 138.945 84.944 138.529 85.552C138.124 86.1493 137.921 86.9333 137.921 87.904C137.921 88.8747 138.124 89.6587 138.529 90.256C138.945 90.8533 139.537 91.152 140.305 91.152ZM146.045 92V90.416H147.597V92H146.045Z" fill="white" fill-opacity="0.24"/>
</g>
<defs>
<filter id="filter0_b_565_2233" x="-99.6992" y="-99.7002" width="547.398" height="328.4" filterUnits="userSpaceOnUse" color-interpolation-filters="sRGB">
<feFlood flood-opacity="0" result="BackgroundImageFix"/>
<feGaussianBlur in="BackgroundImageFix" stdDeviation="50"/>
<feComposite in2="SourceAlpha" operator="in" result="effect1_backgroundBlur_565_2233"/>
<feBlend mode="normal" in="SourceGraphic" in2="effect1_backgroundBlur_565_2233" result="shape"/>
</filter>
<radialGradient id="paint0_radial_565_2233" cx="0" cy="0" r="1" gradientUnits="userSpaceOnUse" gradientTransform="translate(20.7608 -55.0457) rotate(29.9812) scale(343.924 330.35)">
<stop stop-color="#363636"/>
<stop offset="1" stop-color="#1A1A1A" stop-opacity="0.27"/>
</radialGradient>
<linearGradient id="paint1_linear_565_2233" x1="1" y1="5.66422" x2="286.088" y2="207.785" gradientUnits="userSpaceOnUse">
<stop stop-color="white"/>
<stop offset="0.325893" stop-color="white" stop-opacity="0.256139"/>
<stop offset="0.695684" stop-color="white" stop-opacity="0.735087"/>
<stop offset="1" stop-color="white" stop-opacity="0.07"/>
</linearGradient>
<clipPath id="clip0_565_2233">
<rect width="30" height="30" fill="white" transform="translate(33 37)"/>
</clipPath>
</defs>
</svg>
