<svg width="198" height="112" viewBox="0 0 198 112" fill="none" xmlns="http://www.w3.org/2000/svg">
<g opacity="0.8" filter="url(#filter0_f_565_2230)">
<path d="M88.9838 -155.401C94.4038 -163.554 105.504 -165.852 112.858 -159.389C124.635 -149.039 134.51 -136.64 141.979 -122.747C152.255 -103.631 157.657 -82.2761 157.709 -60.5735C157.76 -38.8709 152.459 -17.4906 142.273 1.67357C132.088 20.8378 117.334 37.1943 99.3175 49.2943C81.301 61.3944 60.5785 68.8645 38.9855 71.0428C17.3925 73.2212 -4.40455 70.0407 -24.4748 61.783C-44.545 53.5253 -62.269 40.4452 -76.0766 23.7015C-86.112 11.5323 -93.8536 -2.29921 -98.9794 -17.1166C-102.18 -26.369 -95.8534 -35.7751 -86.2557 -37.7078C-76.6579 -39.6406 -67.4591 -33.3302 -63.8059 -24.2469C-60.1237 -15.0917 -55.0461 -6.5224 -48.7234 1.14468C-38.6252 13.3901 -25.6629 22.9561 -10.9846 28.9954C3.69367 35.0346 19.6348 37.3607 35.4268 35.7675C51.2187 34.1744 66.3741 28.7112 79.5503 19.8619C92.7266 11.0125 103.517 -0.949732 110.966 -14.9654C118.415 -28.981 122.292 -44.6174 122.255 -60.4895C122.217 -76.3616 118.266 -91.9794 110.75 -105.96C106.045 -114.713 100.033 -122.655 92.9515 -129.527C85.9253 -136.345 83.5638 -147.247 88.9838 -155.401Z" fill="#FF4E17"/>
</g>
<defs>
<filter id="filter0_f_565_2230" x="-139.818" y="-203.126" width="337.527" height="314.835" filterUnits="userSpaceOnUse" color-interpolation-filters="sRGB">
<feFlood flood-opacity="0" result="BackgroundImageFix"/>
<feBlend mode="normal" in="SourceGraphic" in2="BackgroundImageFix" result="shape"/>
<feGaussianBlur stdDeviation="20" result="effect1_foregroundBlur_565_2230"/>
</filter>
</defs>
</svg>
