<svg width="24" height="25" viewBox="0 0 24 25" fill="none" xmlns="http://www.w3.org/2000/svg">
<g id="vuesax/bold/tick-circle">
<g id="tick-circle">
<path id="Vector" d="M12 2.33365C6.49 2.33365 2 6.82365 2 12.3336C2 17.8436 6.49 22.3336 12 22.3336C17.51 22.3336 22 17.8436 22 12.3336C22 6.82365 17.51 2.33365 12 2.33365ZM16.78 10.0336L11.11 15.7036C10.97 15.8436 10.78 15.9236 10.58 15.9236C10.38 15.9236 10.19 15.8436 10.05 15.7036L7.22 12.8736C6.93 12.5836 6.93 12.1036 7.22 11.8136C7.51 11.5236 7.99 11.5236 8.28 11.8136L10.58 14.1136L15.72 8.97365C16.01 8.68365 16.49 8.68365 16.78 8.97365C17.07 9.26365 17.07 9.73365 16.78 10.0336Z" fill="#48B563"/>
</g>
</g>
</svg>
