<svg width="256" height="72" viewBox="0 0 256 72" fill="none" xmlns="http://www.w3.org/2000/svg">
<g opacity="0.8" filter="url(#filter0_f_580_3994)">
<path d="M233.044 -144.873C242.049 -148.716 252.591 -144.547 255.193 -135.109C259.36 -119.994 260.814 -104.21 259.435 -88.4973C257.539 -66.8778 250.339 -46.0596 238.475 -27.8869C226.611 -9.71421 210.448 5.25206 191.419 15.6862C172.389 26.1204 151.08 31.7004 129.378 31.9319C107.677 32.1635 86.2532 27.0394 67.0051 17.0137C47.757 6.9879 31.2786 -7.63012 19.0294 -25.5455C6.78027 -43.4609 -0.861529 -64.1208 -3.21906 -85.695C-4.9325 -101.375 -3.81618 -117.186 0.0278854 -132.387C2.42825 -141.878 12.8783 -146.271 21.963 -142.621C31.0476 -138.971 35.2761 -128.649 33.3469 -119.05C31.4023 -109.376 30.946 -99.4253 32.0255 -89.5463C33.7497 -73.7681 39.3385 -58.6587 48.2968 -45.5563C57.2552 -32.4539 69.3066 -21.7631 83.3836 -14.4308C97.4606 -7.09852 113.129 -3.35107 129 -3.52041C144.871 -3.68975 160.456 -7.77064 174.373 -15.4016C188.29 -23.0326 200.111 -33.9781 208.788 -47.2686C217.464 -60.5592 222.73 -75.7844 224.117 -91.5958C224.985 -101.496 224.317 -111.434 222.166 -121.065C220.032 -130.62 224.04 -141.03 233.044 -144.873Z" fill="#7D40FF"/>
</g>
<defs>
<filter id="filter0_f_580_3994" x="-44" y="-186.297" width="343.939" height="258.236" filterUnits="userSpaceOnUse" color-interpolation-filters="sRGB">
<feFlood flood-opacity="0" result="BackgroundImageFix"/>
<feBlend mode="normal" in="SourceGraphic" in2="BackgroundImageFix" result="shape"/>
<feGaussianBlur stdDeviation="20" result="effect1_foregroundBlur_580_3994"/>
</filter>
</defs>
</svg>
