<svg width="256" height="72" viewBox="0 0 256 72" fill="none" xmlns="http://www.w3.org/2000/svg">
<g opacity="0.8" filter="url(#filter0_f_574_5660)">
<path d="M233.044 -144.872C242.049 -148.715 252.591 -144.546 255.193 -135.108C259.36 -119.993 260.814 -104.209 259.435 -88.4964C257.539 -66.8768 250.339 -46.0586 238.475 -27.8859C226.611 -9.71324 210.448 5.25304 191.419 15.6872C172.389 26.1214 151.08 31.7014 129.378 31.9329C107.677 32.1645 86.2532 27.0404 67.0051 17.0146C47.757 6.98887 31.2786 -7.62914 19.0294 -25.5446C6.78027 -43.46 -0.861529 -64.1198 -3.21906 -85.694C-4.9325 -101.374 -3.81618 -117.185 0.0278854 -132.386C2.42825 -141.877 12.8783 -146.27 21.963 -142.62C31.0476 -138.97 35.2761 -128.648 33.3469 -119.049C31.4023 -109.375 30.946 -99.4243 32.0255 -89.5453C33.7497 -73.7671 39.3385 -58.6577 48.2968 -45.5553C57.2552 -32.453 69.3066 -21.7621 83.3836 -14.4298C97.4606 -7.09755 113.129 -3.35009 129 -3.51943C144.871 -3.68877 160.456 -7.76967 174.373 -15.4007C188.29 -23.0316 200.111 -33.9772 208.788 -47.2677C217.464 -60.5582 222.73 -75.7835 224.117 -91.5949C224.985 -101.495 224.317 -111.433 222.166 -121.064C220.032 -130.619 224.04 -141.029 233.044 -144.872Z" fill="#FF4E17"/>
</g>
<defs>
<filter id="filter0_f_574_5660" x="-44" y="-186.295" width="343.939" height="258.235" filterUnits="userSpaceOnUse" color-interpolation-filters="sRGB">
<feFlood flood-opacity="0" result="BackgroundImageFix"/>
<feBlend mode="normal" in="SourceGraphic" in2="BackgroundImageFix" result="shape"/>
<feGaussianBlur stdDeviation="20" result="effect1_foregroundBlur_574_5660"/>
</filter>
</defs>
</svg>
