<svg width="137" height="34" viewBox="0 0 137 34" fill="none" xmlns="http://www.w3.org/2000/svg">
<g filter="url(#filter0_iiii_862_5322)">
<path d="M23.2401 0H9.86452C4.4165 0 0 4.53594 0 10.1313V23.8687C0 29.4641 4.4165 34 9.86452 34H23.2401C28.6882 34 33.1047 29.4641 33.1047 23.8687V10.1313C33.1047 4.53594 28.6882 0 23.2401 0Z" fill="url(#paint0_linear_862_5322)"/>
</g>
<path d="M9.86452 0.118765H23.2401C28.6196 0.118765 32.9859 4.59853 32.9859 10.1313V23.8687C32.9859 29.4015 28.6196 33.8812 23.2401 33.8812H9.86452C4.48505 33.8812 0.118765 29.4015 0.118765 23.8687V10.1313C0.118765 4.59853 4.48505 0.118765 9.86452 0.118765Z" stroke="url(#paint1_linear_862_5322)" stroke-width="0.23753"/>
<path d="M22.2368 3.43555H10.8675C6.71226 3.43555 3.34375 6.89516 3.34375 11.1628V22.8396C3.34375 27.1072 6.71226 30.5669 10.8675 30.5669H22.2368C26.3921 30.5669 29.7606 27.1072 29.7606 22.8396V11.1628C29.7606 6.89516 26.3921 3.43555 22.2368 3.43555Z" fill="url(#paint2_linear_862_5322)" stroke="url(#paint3_linear_862_5322)" stroke-width="0.0640001"/>
<path d="M20.5647 6.86914H12.5393C9.30745 6.86914 6.6875 9.55996 6.6875 12.8792V21.1217C6.6875 24.441 9.30745 27.1318 12.5393 27.1318H20.5647C23.7966 27.1318 26.4165 24.441 26.4165 21.1217V12.8792C26.4165 9.55996 23.7966 6.86914 20.5647 6.86914Z" fill="url(#paint4_linear_862_5322)" stroke="url(#paint5_linear_862_5322)" stroke-width="0.0640001"/>
<g filter="url(#filter1_ddddd_862_5322)">
<path d="M17.0655 13.0837V18.0473L24.9832 15.2799C25.7609 15.0081 26.2774 14.3065 26.2774 13.5218V10.3149C26.2774 10.0945 26.0599 9.94008 25.8518 10.0128L17.0655 13.0837Z" fill="url(#paint6_linear_862_5322)"/>
<path d="M16.8939 8.07962C16.9967 8.11553 17.0655 8.21246 17.0655 8.32129V14.409C17.0655 13.6243 16.549 12.9227 15.7713 12.6509L9.14769 10.3358C8.36999 10.064 7.85352 9.36236 7.85352 8.57772V5.28058C7.85352 5.10428 8.02755 4.98075 8.19398 5.03892L16.8939 8.07962Z" fill="url(#paint7_linear_862_5322)"/>
<path d="M17.0655 18.0473L17.0655 23.0109L9.1477 20.2435C8.37001 19.9717 7.85353 19.2701 7.85353 18.4854V15.1883C7.85353 15.012 8.02757 14.8885 8.194 14.9466L17.0655 18.0473Z" fill="url(#paint8_linear_862_5322)"/>
<path fill-rule="evenodd" clip-rule="evenodd" d="M13.2735 18.8161V28.892C13.2735 29.0333 13.3881 29.148 13.5295 29.148H16.8126C16.9541 29.148 17.0688 29.0331 17.0686 28.8916L17.0557 18.8161H13.2735Z" fill="url(#paint9_linear_862_5322)"/>
</g>
<g filter="url(#filter2_i_862_5322)">
<path d="M48.0055 12.4468V15.4944H45.276V22.7702C45.276 23.9508 45.838 24.2528 46.6407 24.2803C47.0421 24.2803 47.7379 24.2528 48.2196 24.1979V27.4102C47.7914 27.4926 47.0957 27.5475 46.1055 27.5475C43.2423 27.5475 41.2888 26.2296 41.3156 23.3468V15.4944H39.3086V12.4468H41.3156V8.87751H45.276V12.4468H48.0055Z" fill="url(#paint10_linear_862_5322)"/>
<path d="M49.6721 27.3553V12.4468H53.4987V15.0276H53.6593C54.1945 13.1881 55.5324 12.2271 57.1648 12.2271C57.5662 12.2271 58.0746 12.282 58.4225 12.3644V15.9886C58.0478 15.8788 57.2986 15.7689 56.7366 15.7689C54.9437 15.7689 53.6325 17.0594 53.6325 18.8715V27.3553H49.6721Z" fill="url(#paint11_linear_862_5322)"/>
<path d="M59.5271 27.3553V12.4468H63.4876V27.3553H59.5271ZM61.5073 10.4974C60.3032 10.4974 59.3398 9.5639 59.3398 8.43821C59.3398 7.28506 60.3032 6.35156 61.5073 6.35156C62.6848 6.35156 63.6481 7.28506 63.6481 8.43821C63.6481 9.5639 62.6848 10.4974 61.5073 10.4974Z" fill="url(#paint12_linear_862_5322)"/>
<path d="M65.0471 23.182C65.0471 19.8599 67.6695 18.7616 70.4526 18.5969C71.4962 18.5283 73.4496 18.4322 74.0651 18.4047V17.1966C74.0383 15.9611 73.2088 15.2198 71.737 15.2198C70.399 15.2198 69.5427 15.8513 69.3286 16.8672H65.5555C65.7964 14.2863 67.9907 12.2546 71.8441 12.2546C75.0017 12.2546 77.9988 13.7097 77.9988 17.3065V27.3553H74.2524V25.2961H74.1454C73.4229 26.6689 72.0581 27.6299 69.8906 27.6299C67.1076 27.6299 65.0471 26.1473 65.0471 23.182ZM68.847 23.0722C68.847 24.2254 69.7568 24.8294 71.0145 24.8294C72.8074 24.8294 74.0919 23.5939 74.0651 22.0289V20.9307C73.463 20.9581 71.7772 21.0542 71.0948 21.1228C69.73 21.2601 68.847 21.9191 68.847 23.0722Z" fill="url(#paint13_linear_862_5322)"/>
</g>
<rect x="87.2188" y="5.51172" width="48.9535" height="22.9767" rx="11.4884" stroke="url(#paint14_linear_862_5322)"/>
<path d="M95.7392 20.674H98.2312C99.3885 20.674 100.247 20.3147 100.807 19.596C101.377 18.868 101.661 17.846 101.661 16.53C101.661 13.7207 100.551 12.316 98.3292 12.316H95.7392V20.674ZM94.8012 21.5V11.49H98.3572C99.7852 11.49 100.854 11.9427 101.563 12.848C102.282 13.7533 102.641 14.9807 102.641 16.53C102.641 18.0607 102.268 19.274 101.521 20.17C100.784 21.0567 99.6965 21.5 98.2592 21.5H94.8012ZM107.151 21.682C106.097 21.682 105.271 21.332 104.673 20.632C104.076 19.9227 103.777 19.008 103.777 17.888C103.777 16.7867 104.081 15.8813 104.687 15.172C105.294 14.4533 106.092 14.094 107.081 14.094C107.641 14.094 108.127 14.2013 108.537 14.416C108.957 14.6307 109.284 14.9293 109.517 15.312C109.751 15.6947 109.919 16.1147 110.021 16.572C110.133 17.02 110.189 17.51 110.189 18.042H104.673C104.692 18.9007 104.911 19.6007 105.331 20.142C105.751 20.674 106.358 20.94 107.151 20.94C108.253 20.94 108.957 20.3987 109.265 19.316H110.105C109.947 20.044 109.611 20.6227 109.097 21.052C108.593 21.472 107.945 21.682 107.151 21.682ZM104.687 17.356H109.279C109.261 16.6 109.065 15.9887 108.691 15.522C108.327 15.046 107.791 14.808 107.081 14.808C106.381 14.808 105.826 15.0413 105.415 15.508C105.014 15.9747 104.771 16.5907 104.687 17.356ZM111.545 21.5V14.262H112.413V15.354H112.441C112.963 14.5233 113.696 14.108 114.639 14.108C115.096 14.108 115.497 14.2247 115.843 14.458C116.188 14.682 116.431 15.004 116.571 15.424H116.599C117.103 14.5467 117.877 14.108 118.923 14.108C119.557 14.108 120.08 14.3087 120.491 14.71C120.901 15.102 121.107 15.6527 121.107 16.362V21.5H120.253V16.432C120.253 15.9093 120.113 15.5173 119.833 15.256C119.553 14.9853 119.184 14.85 118.727 14.85C118.176 14.85 117.709 15.0367 117.327 15.41C116.953 15.774 116.767 16.2687 116.767 16.894V21.5H115.899V16.432C115.899 15.9093 115.763 15.5173 115.493 15.256C115.231 14.9853 114.881 14.85 114.443 14.85C113.911 14.85 113.439 15.0507 113.029 15.452C112.618 15.844 112.413 16.3247 112.413 16.894V21.5H111.545ZM125.785 20.954C126.56 20.954 127.162 20.6647 127.591 20.086C128.021 19.5073 128.235 18.7747 128.235 17.888C128.235 17.0013 128.021 16.2687 127.591 15.69C127.162 15.1113 126.56 14.822 125.785 14.822C125.001 14.822 124.395 15.1113 123.965 15.69C123.536 16.2687 123.321 17.0013 123.321 17.888C123.321 18.7747 123.536 19.5073 123.965 20.086C124.395 20.6647 125.001 20.954 125.785 20.954ZM125.785 21.682C124.759 21.682 123.942 21.3273 123.335 20.618C122.729 19.8993 122.425 18.9893 122.425 17.888C122.425 16.7867 122.729 15.8813 123.335 15.172C123.942 14.4533 124.759 14.094 125.785 14.094C126.803 14.094 127.61 14.4533 128.207 15.172C128.814 15.8813 129.117 16.7867 129.117 17.888C129.117 18.9893 128.814 19.8993 128.207 20.618C127.61 21.3273 126.803 21.682 125.785 21.682Z" fill="url(#paint15_linear_862_5322)"/>
<defs>
<filter id="filter0_iiii_862_5322" x="0" y="0" width="33.1055" height="34.3563" filterUnits="userSpaceOnUse" color-interpolation-filters="sRGB">
<feFlood flood-opacity="0" result="BackgroundImageFix"/>
<feBlend mode="normal" in="SourceGraphic" in2="BackgroundImageFix" result="shape"/>
<feColorMatrix in="SourceAlpha" type="matrix" values="0 0 0 0 0 0 0 0 0 0 0 0 0 0 0 0 0 0 127 0" result="hardAlpha"/>
<feOffset/>
<feGaussianBlur stdDeviation="0.0593824"/>
<feComposite in2="hardAlpha" operator="arithmetic" k2="-1" k3="1"/>
<feColorMatrix type="matrix" values="0 0 0 0 0 0 0 0 0 0 0 0 0 0 0 0 0 0 0.17 0"/>
<feBlend mode="normal" in2="shape" result="effect1_innerShadow_862_5322"/>
<feColorMatrix in="SourceAlpha" type="matrix" values="0 0 0 0 0 0 0 0 0 0 0 0 0 0 0 0 0 0 127 0" result="hardAlpha"/>
<feOffset dy="0.23753"/>
<feGaussianBlur stdDeviation="0.118765"/>
<feComposite in2="hardAlpha" operator="arithmetic" k2="-1" k3="1"/>
<feColorMatrix type="matrix" values="0 0 0 0 0 0 0 0 0 0 0 0 0 0 0 0 0 0 0.15 0"/>
<feBlend mode="normal" in2="effect1_innerShadow_862_5322" result="effect2_innerShadow_862_5322"/>
<feColorMatrix in="SourceAlpha" type="matrix" values="0 0 0 0 0 0 0 0 0 0 0 0 0 0 0 0 0 0 127 0" result="hardAlpha"/>
<feOffset dy="0.475059"/>
<feGaussianBlur stdDeviation="0.118765"/>
<feComposite in2="hardAlpha" operator="arithmetic" k2="-1" k3="1"/>
<feColorMatrix type="matrix" values="0 0 0 0 0 0 0 0 0 0 0 0 0 0 0 0 0 0 0.09 0"/>
<feBlend mode="normal" in2="effect2_innerShadow_862_5322" result="effect3_innerShadow_862_5322"/>
<feColorMatrix in="SourceAlpha" type="matrix" values="0 0 0 0 0 0 0 0 0 0 0 0 0 0 0 0 0 0 127 0" result="hardAlpha"/>
<feOffset dy="0.831354"/>
<feGaussianBlur stdDeviation="0.178147"/>
<feComposite in2="hardAlpha" operator="arithmetic" k2="-1" k3="1"/>
<feColorMatrix type="matrix" values="0 0 0 0 0 0 0 0 0 0 0 0 0 0 0 0 0 0 0.03 0"/>
<feBlend mode="normal" in2="effect3_innerShadow_862_5322" result="effect4_innerShadow_862_5322"/>
</filter>
<filter id="filter1_ddddd_862_5322" x="7.61599" y="4.90467" width="20.3241" height="27.3317" filterUnits="userSpaceOnUse" color-interpolation-filters="sRGB">
<feFlood flood-opacity="0" result="BackgroundImageFix"/>
<feColorMatrix in="SourceAlpha" type="matrix" values="0 0 0 0 0 0 0 0 0 0 0 0 0 0 0 0 0 0 127 0" result="hardAlpha"/>
<feOffset dy="0.118765"/>
<feGaussianBlur stdDeviation="0.118765"/>
<feColorMatrix type="matrix" values="0 0 0 0 0.54902 0 0 0 0 0.54902 0 0 0 0 0.54902 0 0 0 0.48 0"/>
<feBlend mode="normal" in2="BackgroundImageFix" result="effect1_dropShadow_862_5322"/>
<feColorMatrix in="SourceAlpha" type="matrix" values="0 0 0 0 0 0 0 0 0 0 0 0 0 0 0 0 0 0 127 0" result="hardAlpha"/>
<feOffset dx="0.118765" dy="0.356295"/>
<feGaussianBlur stdDeviation="0.178147"/>
<feColorMatrix type="matrix" values="0 0 0 0 0.54902 0 0 0 0 0.54902 0 0 0 0 0.54902 0 0 0 0.42 0"/>
<feBlend mode="normal" in2="effect1_dropShadow_862_5322" result="effect2_dropShadow_862_5322"/>
<feColorMatrix in="SourceAlpha" type="matrix" values="0 0 0 0 0 0 0 0 0 0 0 0 0 0 0 0 0 0 127 0" result="hardAlpha"/>
<feOffset dx="0.356295" dy="0.831354"/>
<feGaussianBlur stdDeviation="0.296912"/>
<feColorMatrix type="matrix" values="0 0 0 0 0.54902 0 0 0 0 0.54902 0 0 0 0 0.54902 0 0 0 0.25 0"/>
<feBlend mode="normal" in2="effect2_dropShadow_862_5322" result="effect3_dropShadow_862_5322"/>
<feColorMatrix in="SourceAlpha" type="matrix" values="0 0 0 0 0 0 0 0 0 0 0 0 0 0 0 0 0 0 127 0" result="hardAlpha"/>
<feOffset dx="0.593824" dy="1.54394"/>
<feGaussianBlur stdDeviation="0.296912"/>
<feColorMatrix type="matrix" values="0 0 0 0 0.54902 0 0 0 0 0.54902 0 0 0 0 0.54902 0 0 0 0.07 0"/>
<feBlend mode="normal" in2="effect3_dropShadow_862_5322" result="effect4_dropShadow_862_5322"/>
<feColorMatrix in="SourceAlpha" type="matrix" values="0 0 0 0 0 0 0 0 0 0 0 0 0 0 0 0 0 0 127 0" result="hardAlpha"/>
<feOffset dx="0.950119" dy="2.3753"/>
<feGaussianBlur stdDeviation="0.356295"/>
<feColorMatrix type="matrix" values="0 0 0 0 0.54902 0 0 0 0 0.54902 0 0 0 0 0.54902 0 0 0 0.01 0"/>
<feBlend mode="normal" in2="effect4_dropShadow_862_5322" result="effect5_dropShadow_862_5322"/>
<feBlend mode="normal" in="SourceGraphic" in2="effect5_dropShadow_862_5322" result="shape"/>
</filter>
<filter id="filter2_i_862_5322" x="39.3086" y="6.35156" width="39.6396" height="21.6356" filterUnits="userSpaceOnUse" color-interpolation-filters="sRGB">
<feFlood flood-opacity="0" result="BackgroundImageFix"/>
<feBlend mode="normal" in="SourceGraphic" in2="BackgroundImageFix" result="shape"/>
<feColorMatrix in="SourceAlpha" type="matrix" values="0 0 0 0 0 0 0 0 0 0 0 0 0 0 0 0 0 0 127 0" result="hardAlpha"/>
<feOffset dx="0.950119" dy="0.356295"/>
<feGaussianBlur stdDeviation="0.475059"/>
<feComposite in2="hardAlpha" operator="arithmetic" k2="-1" k3="1"/>
<feColorMatrix type="matrix" values="0 0 0 0 0 0 0 0 0 0 0 0 0 0 0 0 0 0 0.07 0"/>
<feBlend mode="normal" in2="shape" result="effect1_innerShadow_862_5322"/>
</filter>
<linearGradient id="paint0_linear_862_5322" x1="0.440787" y1="0.370548" x2="11.755" y2="21.3204" gradientUnits="userSpaceOnUse">
<stop stop-color="#FCFCFC"/>
<stop offset="1" stop-color="#E8E8E8"/>
</linearGradient>
<linearGradient id="paint1_linear_862_5322" x1="2.28102" y1="5.52929" x2="18.2274" y2="19.4007" gradientUnits="userSpaceOnUse">
<stop stop-color="#212121" stop-opacity="0.1"/>
<stop offset="1" stop-color="#282828" stop-opacity="0"/>
</linearGradient>
<linearGradient id="paint2_linear_862_5322" x1="3.66293" y1="3.69766" x2="12.7143" y2="20.4575" gradientUnits="userSpaceOnUse">
<stop stop-color="white"/>
<stop offset="1" stop-color="#F3F3F3"/>
</linearGradient>
<linearGradient id="paint3_linear_862_5322" x1="5.13511" y1="7.82464" x2="17.8923" y2="18.9217" gradientUnits="userSpaceOnUse">
<stop stop-color="#323232" stop-opacity="0.03"/>
<stop offset="1" stop-color="#080808" stop-opacity="0.06"/>
</linearGradient>
<linearGradient id="paint4_linear_862_5322" x1="6.88509" y1="7.02279" x2="13.6736" y2="19.5927" gradientUnits="userSpaceOnUse">
<stop stop-color="#FDFDFD"/>
<stop offset="1" stop-color="#FAFAFA"/>
</linearGradient>
<linearGradient id="paint5_linear_862_5322" x1="7.98925" y1="10.118" x2="17.5571" y2="18.4408" gradientUnits="userSpaceOnUse">
<stop stop-color="#131313" stop-opacity="0.11"/>
<stop offset="1" stop-color="#0F0F0F" stop-opacity="0.04"/>
</linearGradient>
<linearGradient id="paint6_linear_862_5322" x1="28.0686" y1="29.1058" x2="3.05824" y2="2.36737" gradientUnits="userSpaceOnUse">
<stop stop-color="#111111"/>
<stop offset="1" stop-color="#363636"/>
</linearGradient>
<linearGradient id="paint7_linear_862_5322" x1="28.0686" y1="29.1058" x2="3.05824" y2="2.36737" gradientUnits="userSpaceOnUse">
<stop stop-color="#111111"/>
<stop offset="1" stop-color="#363636"/>
</linearGradient>
<linearGradient id="paint8_linear_862_5322" x1="28.0686" y1="29.1058" x2="3.05824" y2="2.36737" gradientUnits="userSpaceOnUse">
<stop stop-color="#111111"/>
<stop offset="1" stop-color="#363636"/>
</linearGradient>
<linearGradient id="paint9_linear_862_5322" x1="28.0686" y1="29.1058" x2="3.05824" y2="2.36737" gradientUnits="userSpaceOnUse">
<stop stop-color="#111111"/>
<stop offset="1" stop-color="#363636"/>
</linearGradient>
<linearGradient id="paint10_linear_862_5322" x1="78.9337" y1="27.5826" x2="37.1271" y2="6.77621" gradientUnits="userSpaceOnUse">
<stop stop-color="#FBFBFB"/>
<stop offset="1" stop-color="white"/>
</linearGradient>
<linearGradient id="paint11_linear_862_5322" x1="78.9337" y1="27.5826" x2="37.1271" y2="6.77621" gradientUnits="userSpaceOnUse">
<stop stop-color="#FBFBFB"/>
<stop offset="1" stop-color="white"/>
</linearGradient>
<linearGradient id="paint12_linear_862_5322" x1="78.9337" y1="27.5826" x2="37.1271" y2="6.77621" gradientUnits="userSpaceOnUse">
<stop stop-color="#FBFBFB"/>
<stop offset="1" stop-color="white"/>
</linearGradient>
<linearGradient id="paint13_linear_862_5322" x1="78.9337" y1="27.5826" x2="37.1271" y2="6.77621" gradientUnits="userSpaceOnUse">
<stop stop-color="#FBFBFB"/>
<stop offset="1" stop-color="white"/>
</linearGradient>
<linearGradient id="paint14_linear_862_5322" x1="86.7188" y1="5.01172" x2="128.508" y2="39.0208" gradientUnits="userSpaceOnUse">
<stop stop-color="#9F8BFF"/>
<stop offset="1" stop-color="#7053FF"/>
</linearGradient>
<linearGradient id="paint15_linear_862_5322" x1="93.6953" y1="8.5" x2="123.419" y2="33.0875" gradientUnits="userSpaceOnUse">
<stop stop-color="#9F8BFF"/>
<stop offset="1" stop-color="#7053FF"/>
</linearGradient>
</defs>
</svg>
